<svg width="29" height="28" viewBox="0 0 29 28" fill="none" xmlns="http://www.w3.org/2000/svg">
<rect x="0.75" width="28" height="28" rx="14" fill="#BA8D5B"/>
<path d="M18.5441 14.5479L11.7154 19.2759C11.6154 19.3451 11.4983 19.3857 11.3768 19.3931C11.2554 19.4005 11.1342 19.3746 11.0264 19.3181C10.9187 19.2615 10.8284 19.1766 10.7655 19.0725C10.7026 18.9683 10.6694 18.8489 10.6694 18.7272V9.27258C10.6694 9.1509 10.7026 9.03151 10.7655 8.92737C10.8284 8.82322 10.9187 8.73828 11.0264 8.68176C11.1342 8.62524 11.2554 8.59928 11.3768 8.60671C11.4983 8.61414 11.6154 8.65467 11.7154 8.72391L18.5441 13.4519C18.6327 13.5133 18.705 13.5952 18.755 13.6906C18.805 13.786 18.8311 13.8922 18.8311 13.9999C18.8311 14.1077 18.805 14.2138 18.755 14.3092C18.705 14.4047 18.6327 14.4866 18.5441 14.5479Z" fill="white"/>
</svg>
