<svg width="136" height="68" viewBox="0 0 136 68" fill="none" xmlns="http://www.w3.org/2000/svg">
<path fill-rule="evenodd" clip-rule="evenodd" d="M9.02344 30.2141H16.5158V28.4312C16.5158 26.2587 18.2835 24.4923 20.4547 24.4923H30.8327V17H20.4547C14.1519 17 9.02344 22.127 9.02344 28.4299V30.2141ZM9.02344 49H16.5158V40.9625C16.5158 38.79 18.2835 37.0236 20.4547 37.0236H30.8327V29.5313H20.4547C14.1519 29.5313 9.02344 34.6597 9.02344 40.9625V49ZM42.6094 22.5993H44.0288V31.2233H46.1532V22.5993H48.2073V20.9444H46.1229V19.9752C46.1229 19.0651 46.5538 18.6053 47.4735 18.6053C47.7585 18.6053 48.0421 18.626 48.2472 18.6645V17.0977C47.9732 17.0496 47.4941 17 47.0632 17C44.9691 17 44.0288 17.9403 44.0288 19.9366V20.9444H42.6094V22.5993ZM50.7102 17C50.0343 17 49.4863 17.5383 49.4863 18.2143C49.4863 18.8793 50.0343 19.4176 50.7102 19.419C51.3959 19.419 51.9438 18.8793 51.9438 18.2143C51.9438 17.5383 51.3959 17 50.7102 17ZM49.6529 20.9251V31.2233H51.7676V20.9251H49.6529ZM52.8691 26.0744C52.8691 22.8252 54.5915 20.7587 57.1756 20.7587C58.6543 20.7587 59.8287 21.5022 60.4055 22.638H60.4441V17.0979H62.5684V31.2221H60.5143V29.4708H60.4757C59.8686 30.6452 58.6942 31.3997 57.1963 31.3997C54.5915 31.3997 52.8691 29.3235 52.8691 26.0744ZM55.032 26.0744C55.032 28.2469 56.0797 29.6085 57.7539 29.6085C59.3785 29.6085 60.4647 28.229 60.4647 26.0744C60.4647 23.9404 59.3785 22.5402 57.7539 22.5402C56.0797 22.5402 55.032 23.9115 55.032 26.0744ZM68.5546 20.7399C65.6179 20.7399 63.6698 22.7665 63.6698 26.0749C63.6698 29.3929 65.6083 31.4195 68.5546 31.4195C71.5008 31.4195 73.4393 29.3929 73.4393 26.0749C73.4393 22.7665 71.4912 20.7399 68.5546 20.7399ZM68.5546 22.4829C70.2094 22.4829 71.2861 23.7936 71.2861 26.0749C71.2861 28.3644 70.2191 29.6765 68.5546 29.6765C66.8997 29.6765 65.8231 28.3658 65.8231 26.0749C65.8231 23.795 66.8997 22.4829 68.5546 22.4829ZM81.7812 20.7399C84.0722 20.7399 85.6775 22.0217 85.7449 23.8528H83.7583C83.6605 22.9235 82.9061 22.3452 81.722 22.3452C80.5766 22.3452 79.8139 22.9028 79.8139 23.7151C79.8139 24.3512 80.3233 24.7821 81.3903 25.0464L83.1222 25.4484C85.197 25.9482 85.9804 26.7302 85.9804 28.2474C85.9804 30.1267 84.2277 31.4195 81.7028 31.4195C79.2659 31.4195 77.651 30.157 77.4844 28.268H79.5784C79.745 29.2566 80.5078 29.8045 81.8005 29.8045C83.0726 29.8045 83.856 29.2758 83.856 28.4443C83.856 27.7889 83.465 27.4268 82.3884 27.1529L80.5477 26.7027C78.6877 26.2525 77.7487 25.2832 77.7487 23.8445C77.7473 22.0024 79.3733 20.7399 81.7812 20.7399ZM89.7649 20.9258V18.4889H87.6406V20.9258H86.1427V22.5999H87.6406V28.5103C87.6406 30.497 88.4543 31.29 90.5387 31.29C91.0081 31.29 91.4776 31.2515 91.713 31.1923V29.5181C91.5754 29.5484 91.2326 29.5677 91.0178 29.5677C90.1559 29.5677 89.7649 29.1671 89.7649 28.2763V22.5999H91.7227V20.9258H89.7649ZM101.68 31.2236H99.6545V29.4806H99.6049C99.0377 30.7142 97.99 31.4094 96.4136 31.4094C94.1722 31.4094 92.801 29.9514 92.801 27.5917V20.9254H94.9157V27.18C94.9157 28.7468 95.6591 29.588 97.1185 29.588C98.6453 29.588 99.565 28.5306 99.565 26.9253V20.9254H101.68V31.2236ZM107.012 20.7587C104.427 20.7587 102.705 22.8252 102.705 26.0744C102.705 29.3235 104.427 31.3997 107.031 31.3997C108.529 31.3997 109.703 30.6452 110.31 29.4708H110.349V31.2221H112.404V17.0979H110.28V22.638H110.241C109.665 21.5022 108.49 20.7587 107.012 20.7587ZM107.59 29.6085C105.916 29.6085 104.868 28.2469 104.868 26.0744C104.868 23.9115 105.916 22.5402 107.59 22.5402C109.214 22.5402 110.301 23.9404 110.301 26.0744C110.301 28.229 109.214 29.6085 107.59 29.6085ZM113.869 18.2143C113.869 17.5383 114.417 17 115.093 17C115.779 17 116.327 17.5383 116.327 18.2143C116.327 18.8793 115.779 19.419 115.093 19.419C114.417 19.4176 113.869 18.8793 113.869 18.2143ZM116.15 20.9251V31.2233H114.036V20.9251H116.15ZM122.137 20.7399C119.2 20.7399 117.252 22.7665 117.252 26.0749C117.252 29.3929 119.191 31.4195 122.137 31.4195C125.083 31.4195 127.022 29.3929 127.022 26.0749C127.022 22.7665 125.074 20.7399 122.137 20.7399ZM122.136 22.4829C123.79 22.4829 124.867 23.7936 124.867 26.0749C124.867 28.3644 123.8 29.6765 122.136 29.6765C120.481 29.6765 119.404 28.3658 119.404 26.0749C119.404 23.795 120.481 22.4829 122.136 22.4829ZM82.5447 37.9118C82.5447 37.7273 82.6948 37.58 82.8779 37.58C83.0651 37.58 83.2138 37.7273 83.2138 37.9118C83.2138 38.0936 83.0638 38.2409 82.8779 38.2409C82.6948 38.2409 82.5447 38.0936 82.5447 37.9118ZM82.5902 38.6511H83.167V41.4597H82.5902V38.6511ZM79.5101 38.6057C78.8052 38.6057 78.3358 39.1688 78.3358 40.0554C78.3358 40.942 78.8066 41.5079 79.5156 41.5079C79.9245 41.5079 80.2453 41.3028 80.4105 40.982H80.4215V41.4597H80.9819V37.6062H80.4023V39.1178H80.3913C80.2343 38.8081 79.9135 38.6057 79.5101 38.6057ZM79.6685 41.0191C79.2127 41.0191 78.9264 40.6488 78.9264 40.0554C78.9264 39.4662 79.2114 39.0917 79.6685 39.0917C80.1118 39.0917 80.4078 39.473 80.4078 40.0554C80.4078 40.6433 80.1118 41.0191 79.6685 41.0191ZM44.952 41.4598H45.5178L46.3507 38.5548H46.3769L47.2098 41.4598H47.7729L48.8138 37.6062H48.1915L47.4783 40.6241H47.4563L46.6399 37.6062H46.085L45.27 40.6241H45.2493L44.5362 37.6062H43.9139L44.952 41.4598ZM50.0549 41.5134C50.6992 41.5134 51.1852 41.1472 51.265 40.635V40.6337H50.7157C50.6386 40.8801 50.3963 41.0453 50.0673 41.0453C49.6047 41.0453 49.3114 40.7218 49.3114 40.233V40.1986H51.2953V40.0017C51.2953 39.1509 50.8093 38.6002 50.0301 38.6002C49.2371 38.6002 48.7304 39.1881 48.7304 40.0692C48.7304 40.9558 49.2302 41.5134 50.0549 41.5134ZM50.7198 39.7966H49.3155C49.3445 39.3726 49.6294 39.0655 50.0315 39.0655C50.4335 39.0655 50.7061 39.3671 50.7198 39.7966ZM52.6287 40.6633C52.6287 40.1718 53.0046 39.8702 53.6723 39.8331L54.4405 39.7876V39.5715C54.4405 39.259 54.2299 39.0717 53.8774 39.0717C53.5443 39.0717 53.335 39.2314 53.2841 39.4834H52.7389C52.7705 38.9767 53.2028 38.6022 53.8981 38.6022C54.5796 38.6022 55.0146 38.963 55.0146 39.5261V41.4618H54.4626V40.9992H54.4488C54.2863 41.3117 53.9311 41.5086 53.5622 41.5086C53.0128 41.5086 52.6287 41.1671 52.6287 40.6633ZM54.4419 40.4086V40.1869L53.7508 40.2296C53.4066 40.253 53.2111 40.4058 53.2111 40.6467C53.2111 40.8918 53.4135 41.0529 53.7232 41.0529C54.1266 41.0529 54.4419 40.7748 54.4419 40.4086ZM56.072 38.6516H55.5227V41.4615H56.0995V39.7792C56.0995 39.3813 56.3281 39.1335 56.6998 39.1335C56.8113 39.1335 56.9132 39.1458 56.9586 39.1651V38.6282C56.916 38.6199 56.8444 38.6062 56.7618 38.6062C56.43 38.6062 56.1794 38.8003 56.0858 39.1293H56.072V38.6516ZM59.5483 40.635C59.4685 41.1472 58.9825 41.5134 58.3382 41.5134C57.5135 41.5134 57.0137 40.9558 57.0137 40.0692C57.0137 39.1881 57.5204 38.6002 58.3134 38.6002C59.0926 38.6002 59.5786 39.1509 59.5786 40.0017V40.1986H57.5947V40.233C57.5947 40.7218 57.888 41.0453 58.3505 41.0453C58.6796 41.0453 58.9219 40.8801 58.999 40.6337H59.5483V40.635ZM57.5988 39.7966H59.0031C58.9894 39.3671 58.7168 39.0655 58.3148 39.0655C57.9127 39.0655 57.6278 39.3726 57.5988 39.7966ZM62.2266 41.5135C62.8709 41.5135 63.3569 41.1473 63.4368 40.6351V40.6338H62.8874C62.8103 40.8802 62.568 41.0454 62.239 41.0454C61.7764 41.0454 61.4831 40.7219 61.4831 40.2331V40.1987H63.4671V40.0018C63.4671 39.151 62.9811 38.6003 62.2018 38.6003C61.4088 38.6003 60.9022 39.1882 60.9022 40.0693C60.9022 40.9559 61.4019 41.5135 62.2266 41.5135ZM62.8916 39.7967H61.4873C61.5162 39.3727 61.8012 39.0656 62.2032 39.0656C62.6052 39.0656 62.8778 39.3671 62.8916 39.7967ZM63.8586 38.6514H64.4079V39.1209H64.4217C64.5745 38.8001 64.8733 38.6032 65.3056 38.6032C65.9251 38.6032 66.2803 38.9984 66.2803 39.6413V41.46H65.7007V39.7542C65.7007 39.3329 65.5025 39.1002 65.1032 39.1002C64.6971 39.1002 64.4355 39.388 64.4355 39.8244V41.4614H63.8586V38.6514ZM67.3362 41.6791H66.7566C66.8282 42.1665 67.3197 42.5175 67.9833 42.5175C68.7845 42.5175 69.3022 42.0797 69.3022 41.4092V38.6516H68.7419V39.1321H68.7308C68.5601 38.8072 68.2338 38.6062 67.8359 38.6062C67.1145 38.6062 66.6561 39.161 66.6561 40.0449C66.6561 40.9205 67.1173 41.4712 67.8222 41.4712C68.2228 41.4712 68.5546 41.2702 68.7116 40.9659H68.7226V41.4285C68.7226 41.8126 68.4555 42.0687 68.0039 42.0687C67.6749 42.0687 67.4188 41.9145 67.3362 41.6791ZM67.9764 39.0935C68.428 39.0935 68.724 39.4721 68.724 40.049C68.724 40.6272 68.428 40.9935 67.9764 40.9948C67.5331 40.9948 67.2453 40.6369 67.2453 40.049C67.2453 39.4653 67.5331 39.0935 67.9764 39.0935ZM69.7029 40.6633C69.7029 40.1718 70.0788 39.8702 70.7465 39.8331L71.5148 39.7876V39.5715C71.5148 39.259 71.3041 39.0717 70.9517 39.0717C70.6185 39.0717 70.4092 39.2314 70.3583 39.4834H69.8131C69.8447 38.9767 70.277 38.6022 70.9723 38.6022C71.6538 38.6022 72.0889 38.963 72.0889 39.5261V41.4618H71.5368V40.9992H71.523C71.3606 41.3117 71.0054 41.5086 70.6364 41.5086C70.0884 41.5086 69.7029 41.1671 69.7029 40.6633ZM71.5161 40.4086V40.1869L70.825 40.2296C70.4808 40.253 70.2853 40.4058 70.2853 40.6467C70.2853 40.8918 70.4877 41.0529 70.7975 41.0529C71.2009 41.0529 71.5161 40.7748 71.5161 40.4086ZM73.1485 41.6792H72.5689C72.6419 42.1665 73.1334 42.5176 73.7956 42.5176C74.5969 42.5176 75.1145 42.0798 75.1145 41.4093V38.6517H74.5542V39.1322H74.5432C74.3725 38.8072 74.0462 38.6062 73.6483 38.6062C72.9269 38.6062 72.4684 39.1611 72.4684 40.045C72.4684 40.9206 72.9296 41.4713 73.6345 41.4713C74.0352 41.4713 74.367 41.2703 74.5239 40.966H74.5349V41.4286C74.5349 41.8127 74.2678 42.0688 73.8163 42.0688C73.4872 42.0688 73.2311 41.9146 73.1485 41.6792ZM73.7901 39.0936C74.2417 39.0936 74.5377 39.4722 74.5377 40.0491C74.5377 40.6273 74.2417 40.9935 73.7901 40.9949C73.3468 40.9949 73.059 40.637 73.059 40.0491C73.059 39.4653 73.3468 39.0936 73.7901 39.0936ZM78.0383 40.6351C77.9585 41.1473 77.4725 41.5135 76.8282 41.5135C76.0035 41.5135 75.5037 40.9559 75.5037 40.0693C75.5037 39.1882 76.0104 38.6003 76.8034 38.6003C77.5826 38.6003 78.0686 39.151 78.0686 40.0018V40.1987H76.0847V40.2331C76.0847 40.7219 76.378 41.0454 76.8405 41.0454C77.1696 41.0454 77.4119 40.8802 77.489 40.6338H78.0383V40.6351ZM76.0888 39.7967H77.4931C77.4794 39.3671 77.2068 39.0656 76.8047 39.0656C76.4027 39.0656 76.1178 39.3727 76.0888 39.7967ZM84.2536 38.6514H83.7043V41.4614H84.2812V39.8244C84.2812 39.388 84.5428 39.1002 84.9489 39.1002C85.3482 39.1002 85.5464 39.3329 85.5464 39.7542V41.46H86.126V39.6413C86.126 38.9984 85.7708 38.6032 85.1513 38.6032C84.719 38.6032 84.4202 38.8001 84.2674 39.1209H84.2536V38.6514ZM88.4258 37.9863V38.6513H88.96V39.1083H88.4258V40.6572C88.4258 40.9009 88.5332 41.0096 88.7673 41.0096C88.8265 41.0096 88.9201 41.0041 88.9573 40.9959V41.453C88.8925 41.4695 88.7645 41.4791 88.6365 41.4791C88.0679 41.4791 87.8462 41.263 87.8462 40.7205V39.1083H87.4373V38.6513H87.8462V37.9863H88.4258ZM89.9698 37.6072H89.3998V41.4608H89.9766V39.8376C89.9766 39.3943 90.2382 39.101 90.665 39.101C91.0712 39.101 91.2791 39.3488 91.2791 39.7633V41.4608H91.8587V39.6504C91.8587 39.0157 91.4897 38.604 90.8729 38.604C90.4461 38.604 90.1377 38.7926 89.9835 39.1217H89.9698V37.6072ZM94.7688 40.6351C94.6889 41.1473 94.203 41.5135 93.5586 41.5135C92.7339 41.5135 92.2342 40.9559 92.2342 40.0693C92.2342 39.1882 92.7408 38.6003 93.5338 38.6003C94.3131 38.6003 94.7991 39.151 94.7991 40.0018V40.1987H92.8152V40.2331C92.8152 40.7219 93.1084 41.0454 93.571 41.0454C93.9001 41.0454 94.1424 40.8802 94.2195 40.6338H94.7688V40.6351ZM92.8193 39.7967H94.2236C94.2098 39.3671 93.9372 39.0656 93.5352 39.0656C93.1332 39.0656 92.8482 39.3727 92.8193 39.7967ZM97.1762 39.8331C96.5085 39.8702 96.1326 40.1718 96.1326 40.6633C96.1326 41.1671 96.5181 41.5086 97.0661 41.5086C97.435 41.5086 97.7903 41.3117 97.9527 40.9992H97.9665V41.4618H98.5186V39.5261C98.5186 38.963 98.0835 38.6022 97.402 38.6022C96.7067 38.6022 96.2744 38.9767 96.2428 39.4834H96.788C96.8389 39.2314 97.0482 39.0717 97.3813 39.0717C97.7338 39.0717 97.9444 39.259 97.9444 39.5715V39.7876L97.1762 39.8331ZM97.9458 40.1869V40.4086C97.9458 40.7748 97.6305 41.0529 97.2271 41.0529C96.9174 41.0529 96.715 40.8918 96.715 40.6467C96.715 40.4058 96.9105 40.253 97.2547 40.2296L97.9458 40.1869ZM99.0266 38.6514H99.5759V39.1209H99.5897C99.7425 38.8001 100.041 38.6032 100.474 38.6032C101.093 38.6032 101.448 38.9984 101.448 39.6413V41.46H100.869V39.7542C100.869 39.3329 100.67 39.1002 100.271 39.1002C99.865 39.1002 99.6034 39.388 99.6034 39.8244V41.4614H99.0266V38.6514ZM102.877 39.8331C102.21 39.8702 101.834 40.1718 101.834 40.6633C101.834 41.1671 102.219 41.5086 102.767 41.5086C103.136 41.5086 103.491 41.3117 103.654 40.9992H103.668V41.4618H104.22V39.5261C104.22 38.963 103.785 38.6022 103.103 38.6022C102.408 38.6022 101.976 38.9767 101.944 39.4834H102.489C102.54 39.2314 102.749 39.0717 103.083 39.0717C103.435 39.0717 103.646 39.259 103.646 39.5715V39.7876L102.877 39.8331ZM103.647 40.1869V40.4086C103.647 40.7748 103.332 41.0529 102.928 41.0529C102.619 41.0529 102.416 40.8918 102.416 40.6467C102.416 40.4058 102.612 40.253 102.956 40.2296L103.647 40.1869ZM105.473 37.9863V38.6513H106.007V39.1083H105.473V40.6572C105.473 40.9009 105.58 41.0096 105.814 41.0096C105.873 41.0096 105.967 41.0041 106.004 40.9959V41.453C105.939 41.4695 105.811 41.4791 105.683 41.4791C105.115 41.4791 104.893 41.263 104.893 40.7205V39.1083H104.484V38.6513H104.893V37.9863H105.473ZM107.565 38.6003C106.764 38.6003 106.232 39.1524 106.232 40.0555C106.232 40.9614 106.761 41.5135 107.565 41.5135C108.369 41.5135 108.898 40.9601 108.898 40.0555C108.898 39.1524 108.366 38.6003 107.565 38.6003ZM107.565 39.0753C108.017 39.0753 108.31 39.4332 108.31 40.0555C108.31 40.6806 108.018 41.0385 107.565 41.0385C107.113 41.0385 106.82 40.6806 106.82 40.0555C106.82 39.4332 107.113 39.0753 107.565 39.0753ZM109.291 38.6514H109.842V39.1236H109.855C109.981 38.8111 110.274 38.6032 110.654 38.6032C111.043 38.6032 111.327 38.8042 111.439 39.1539H111.452C111.597 38.8125 111.927 38.6032 112.328 38.6032C112.883 38.6032 113.246 38.9722 113.246 39.5298V41.46H112.667V39.6688C112.667 39.3054 112.471 39.0975 112.13 39.0975C111.788 39.0975 111.55 39.3508 111.55 39.706V41.46H110.984V39.6262C110.984 39.3026 110.779 39.0975 110.453 39.0975C110.111 39.0975 109.868 39.3646 109.868 39.7253V41.4614H109.291V38.6514ZM113.786 42.026V42.4927C113.829 42.501 113.976 42.5065 114.023 42.5079C114.608 42.5079 114.882 42.289 115.123 41.6075L116.178 38.6516H115.569L114.856 40.937H114.848L114.135 38.6516H113.51L114.524 41.4629C114.524 41.4629 114.516 41.4931 114.505 41.5271C114.491 41.5751 114.473 41.6332 114.473 41.6364C114.385 41.9255 114.243 42.037 113.974 42.037C113.925 42.037 113.829 42.037 113.786 42.026ZM43.9549 46.5372C43.9549 45.6354 44.4863 45.082 45.2876 45.082C46.0889 45.082 46.6203 45.6341 46.6203 46.5372C46.6203 47.4417 46.0916 47.9952 45.2876 47.9952C44.4836 47.9952 43.9549 47.4431 43.9549 46.5372ZM46.0324 46.5372C46.0324 45.9149 45.7392 45.557 45.2876 45.557C44.836 45.557 44.5428 45.9149 44.5428 46.5372C44.5428 47.1623 44.836 47.5202 45.2876 47.5202C45.7419 47.5202 46.0324 47.1623 46.0324 46.5372ZM46.7929 45.5891H47.1798V47.9406H47.7594V45.5877H48.3197V45.1361H47.7511V44.8718C47.7511 44.6226 47.8695 44.4973 48.1201 44.4973C48.1972 44.4973 48.2743 44.5028 48.3308 44.5139V44.0871C48.255 44.0747 48.1242 44.0609 48.0072 44.0609C47.4359 44.0609 47.1798 44.317 47.1798 44.8622V45.1375H46.7929V45.5891ZM52.1813 47.9421H51.6292V47.4671H51.6154C51.4613 47.803 51.1749 47.993 50.7453 47.993C50.1341 47.993 49.7596 47.5951 49.7596 46.9522V45.1335H50.3364V46.8393C50.3364 47.2661 50.5388 47.496 50.9367 47.496C51.3539 47.496 51.6044 47.2083 51.6044 46.7705V45.1335H52.1813V47.9421ZM54.8258 45.9314C54.8079 45.4317 54.3701 45.082 53.7451 45.082C53.0884 45.082 52.645 45.4262 52.6423 45.9259C52.6423 46.3183 52.8997 46.5827 53.4064 46.7052L53.9089 46.8277C54.2022 46.9021 54.3095 47.0012 54.3095 47.1802C54.3095 47.4073 54.0961 47.5519 53.7492 47.5519C53.3968 47.5519 53.1889 47.4032 53.1434 47.1334H52.5721C52.6175 47.6496 53.0581 47.9938 53.723 47.9938C54.4114 47.9938 54.8892 47.6414 54.8892 47.1292C54.8892 46.7148 54.6758 46.5014 54.1099 46.3651L53.6377 46.2564C53.3472 46.1834 53.2081 46.0664 53.2081 45.8929C53.2081 45.6726 53.416 45.5198 53.7286 45.5198C54.0507 45.5198 54.2572 45.6781 54.2834 45.9314H54.8258ZM57.6926 47.1168C57.6128 47.629 57.1268 47.9952 56.4825 47.9952C55.6578 47.9952 55.158 47.4376 55.158 46.551C55.158 45.6699 55.6647 45.082 56.4577 45.082C57.2369 45.082 57.7229 45.6327 57.7229 46.4835V46.6804H55.739V46.7148C55.739 47.2036 56.0323 47.5271 56.4949 47.5271C56.8239 47.5271 57.0662 47.3619 57.1433 47.1155H57.6926V47.1168ZM55.7431 46.2784H57.1474C57.1337 45.8488 56.8611 45.5473 56.4591 45.5473C56.057 45.5473 55.772 45.8543 55.7431 46.2784ZM58.6677 45.1325H58.1184V47.9425H58.6952V46.2601C58.6952 45.8622 58.9238 45.6144 59.2955 45.6144C59.407 45.6144 59.5089 45.6268 59.5543 45.6461V45.1091C59.5117 45.1009 59.4401 45.0871 59.3575 45.0871C59.0257 45.0871 58.7751 45.2812 58.6815 45.6103H58.6677V45.1325ZM60.8846 44.3928C60.8846 44.2083 61.0346 44.061 61.2178 44.061C61.405 44.061 61.5537 44.2083 61.5537 44.3928C61.5537 44.5745 61.4036 44.7218 61.2178 44.7218C61.0333 44.7218 60.8846 44.5745 60.8846 44.3928ZM60.93 45.1321H61.5069V47.9407H60.93V45.1321ZM62.5935 45.1324H62.0442V47.9423H62.621V46.3054C62.621 45.8689 62.8826 45.5812 63.2887 45.5812C63.688 45.5812 63.8863 45.8139 63.8863 46.2352V47.941H64.4659V46.1223C64.4659 45.4793 64.1107 45.0842 63.4911 45.0842C63.0588 45.0842 62.7601 45.2811 62.6073 45.6018H62.5935V45.1324ZM65.711 44.4672V45.1322H66.2452V45.5893H65.711V47.1381C65.711 47.3818 65.8184 47.4906 66.0524 47.4906C66.1116 47.4906 66.2052 47.4851 66.2424 47.4768V47.9339C66.1777 47.9504 66.0497 47.9601 65.9216 47.9601C65.353 47.9601 65.1314 47.7439 65.1314 47.2015V45.5893H64.7225V45.1322H65.1314V44.4672H65.711ZM67.7948 47.9953C68.4392 47.9953 68.9252 47.6291 69.005 47.1169V47.1155H68.4571C68.38 47.362 68.1377 47.5272 67.8086 47.5272C67.346 47.5272 67.0528 47.2037 67.0528 46.7149V46.6805H69.0353V46.4836C69.0353 45.6328 68.5493 45.0821 67.7701 45.0821C66.9771 45.0821 66.4704 45.6699 66.4704 46.5511C66.4704 47.4377 66.9702 47.9953 67.7948 47.9953ZM68.4598 46.2785H67.0555C67.0844 45.8544 67.3694 45.5474 67.7714 45.5474C68.1735 45.5474 68.4461 45.8489 68.4598 46.2785ZM69.4309 45.1325H69.9802V45.6103H69.994C70.0876 45.2812 70.3382 45.0871 70.67 45.0871C70.7526 45.0871 70.8242 45.1009 70.8668 45.1091V45.6461C70.8214 45.6268 70.7195 45.6144 70.608 45.6144C70.2363 45.6144 70.0077 45.8622 70.0077 46.2601V47.9425H69.4309V45.1325ZM70.949 45.5892H71.3359V47.9407H71.9155V45.5878H72.4759V45.1362H71.9073V44.8719C71.9073 44.6227 72.0257 44.4974 72.2762 44.4974C72.3533 44.4974 72.4304 44.5029 72.4869 44.5139V44.0871C72.4112 44.0748 72.2804 44.061 72.1633 44.061C71.592 44.061 71.3359 44.3171 71.3359 44.8623V45.1376H70.949V45.5892ZM72.609 47.1441C72.609 46.6526 72.9849 46.3511 73.6526 46.3139L74.4208 46.2685V46.0523C74.4208 45.7398 74.2102 45.5526 73.8577 45.5526C73.5246 45.5526 73.3153 45.7123 73.2644 45.9642H72.7192C72.7508 45.4576 73.1831 45.0831 73.8784 45.0831C74.5599 45.0831 74.995 45.4438 74.995 46.0069V47.9426H74.4429V47.48H74.4291C74.2666 47.7925 73.9114 47.9894 73.5425 47.9894C72.9931 47.9894 72.609 47.648 72.609 47.1441ZM74.4222 46.8894V46.6677L73.7311 46.7104C73.3869 46.7338 73.1914 46.8866 73.1914 47.1276C73.1914 47.3726 73.3938 47.5337 73.7036 47.5337C74.1069 47.5337 74.4222 47.2556 74.4222 46.8894ZM76.7019 45.5626C77.0777 45.5626 77.3021 45.8007 77.3613 46.0995H77.9107C77.8611 45.546 77.4205 45.0821 76.6964 45.0821C75.8978 45.0821 75.3747 45.6452 75.3747 46.5373C75.3747 47.4446 75.8978 47.9953 76.7019 47.9953C77.3765 47.9953 77.8542 47.5891 77.9162 46.9916H77.3613C77.2952 47.3166 77.0626 47.5121 76.7074 47.5121C76.2585 47.5121 75.9625 47.1541 75.9625 46.5373C75.9625 45.9343 76.2558 45.5626 76.7019 45.5626ZM80.679 47.1168C80.5991 47.629 80.1131 47.9952 79.4688 47.9952C78.6441 47.9952 78.1443 47.4376 78.1443 46.551C78.1443 45.6699 78.651 45.082 79.444 45.082C80.2233 45.082 80.7092 45.6327 80.7092 46.4835V46.6804H78.7253V46.7148C78.7253 47.2036 79.0186 47.5271 79.4812 47.5271C79.8102 47.5271 80.0525 47.3619 80.1296 47.1155H80.679V47.1168ZM78.7295 46.2784H80.1338C80.12 45.8488 79.8474 45.5473 79.4454 45.5473C79.0434 45.5473 78.7598 45.8543 78.7295 46.2784ZM83.0881 46.3139C82.4204 46.3511 82.0445 46.6526 82.0445 47.1441C82.0445 47.648 82.4287 47.9894 82.978 47.9894C83.347 47.9894 83.7022 47.7925 83.8646 47.48H83.8784V47.9426H84.4305V46.0069C84.4305 45.4438 83.9954 45.0831 83.3139 45.0831C82.6187 45.0831 82.1864 45.4576 82.1547 45.9642H82.6999C82.7508 45.7123 82.9601 45.5526 83.2933 45.5526C83.6457 45.5526 83.8564 45.7398 83.8564 46.0523V46.2685L83.0881 46.3139ZM83.8564 46.6677V46.8894C83.8564 47.2556 83.5425 47.5337 83.1377 47.5337C82.8279 47.5337 82.6255 47.3726 82.6255 47.1276C82.6255 46.8866 82.821 46.7338 83.1652 46.7104L83.8564 46.6677ZM84.9345 45.1323H85.4839V45.6017H85.4976C85.6505 45.281 85.9492 45.0841 86.3815 45.0841C87.0011 45.0841 87.3563 45.4792 87.3563 46.1222V47.9409H86.7766V46.2351C86.7766 45.8138 86.5784 45.5811 86.1791 45.5811C85.773 45.5811 85.5114 45.8688 85.5114 46.3053V47.9422H84.9345V45.1323ZM88.9064 45.0876C88.2015 45.0876 87.7321 45.6507 87.7321 46.5374C87.7321 47.424 88.2015 47.9899 88.9119 47.9899C89.3208 47.9899 89.6416 47.7847 89.8068 47.4639H89.8179V47.9417H90.3782V44.0881H89.7986V45.5998H89.7876C89.6306 45.29 89.3098 45.0876 88.9064 45.0876ZM89.0648 47.5011C88.6091 47.5011 88.3227 47.1308 88.3227 46.5374C88.3227 45.9481 88.6077 45.5736 89.0648 45.5736C89.5081 45.5736 89.8041 45.955 89.8041 46.5374C89.8041 47.1252 89.5081 47.5011 89.0648 47.5011ZM91.8416 46.5373C91.8416 45.6507 92.3111 45.0876 93.016 45.0876C93.4194 45.0876 93.7402 45.29 93.8971 45.5998H93.9081V44.0881H94.4877V47.9416H93.9274V47.4639H93.9164C93.7512 47.7847 93.4304 47.9898 93.0215 47.9898C92.3125 47.9898 91.8416 47.424 91.8416 46.5373ZM92.4322 46.5373C92.4322 47.1307 92.7186 47.5011 93.1743 47.5011C93.6176 47.5011 93.9136 47.1252 93.9136 46.5373C93.9136 45.955 93.6176 45.5736 93.1743 45.5736C92.7172 45.5736 92.4322 45.9481 92.4322 46.5373ZM95.3309 44.0609C95.1478 44.0609 94.9977 44.2082 94.9977 44.3927C94.9977 44.5744 95.1464 44.7217 95.3309 44.7217C95.5168 44.7217 95.6668 44.5744 95.6668 44.3927C95.6668 44.2082 95.5181 44.0609 95.3309 44.0609ZM95.62 45.132H95.0432V47.9406H95.62V45.132ZM96.1316 48.16H96.7112C96.7938 48.3955 97.0499 48.5497 97.3789 48.5497C97.8305 48.5497 98.0976 48.2936 98.0976 47.9095V47.4469H98.0866C97.9296 47.7511 97.5978 47.9521 97.1972 47.9521C96.4923 47.9521 96.0311 47.4014 96.0311 46.5258C96.0311 45.6419 96.4895 45.0871 97.2109 45.0871C97.6088 45.0871 97.9351 45.2881 98.1058 45.613H98.1169V45.1325H98.6772V47.8902C98.6772 48.5607 98.1595 48.9985 97.3583 48.9985C96.696 48.9985 96.2045 48.646 96.1316 48.16ZM98.1003 46.5286C98.1003 45.9517 97.8043 45.5731 97.3528 45.5731C96.9094 45.5731 96.6217 45.9448 96.6217 46.5286C96.6217 47.1165 96.9094 47.4744 97.3528 47.4744C97.803 47.4744 98.1003 47.1082 98.1003 46.5286ZM99.4971 44.061C99.3139 44.061 99.1639 44.2083 99.1639 44.3928C99.1639 44.5745 99.3126 44.7218 99.4971 44.7218C99.6829 44.7218 99.833 44.5745 99.833 44.3928C99.833 44.2083 99.6843 44.061 99.4971 44.061ZM99.7862 45.1321H99.2093V47.9407H99.7862V45.1321ZM101.07 44.4672V45.1322H101.605V45.5893H101.07V47.1381C101.07 47.3818 101.178 47.4906 101.412 47.4906C101.471 47.4906 101.565 47.4851 101.602 47.4768V47.9339C101.537 47.9504 101.409 47.9601 101.281 47.9601C100.712 47.9601 100.491 47.7439 100.491 47.2015V45.5893H100.082V45.1322H100.491V44.4672H101.07ZM102.911 46.3138C102.243 46.351 101.867 46.6525 101.867 47.144C101.867 47.6479 102.251 47.9893 102.8 47.9893C103.169 47.9893 103.525 47.7924 103.687 47.4799H103.701V47.9425H104.253V46.0068C104.253 45.4437 103.818 45.083 103.136 45.083C102.441 45.083 102.009 45.4574 101.977 45.9641H102.522C102.573 45.7121 102.783 45.5524 103.116 45.5524C103.468 45.5524 103.679 45.7397 103.679 46.0522V46.2683L102.911 46.3138ZM103.68 46.6676V46.8893C103.68 47.2555 103.365 47.5336 102.962 47.5336C102.652 47.5336 102.449 47.3725 102.449 47.1274C102.449 46.8865 102.645 46.7337 102.989 46.7103L103.68 46.6676ZM104.777 44.0891H105.354V47.9427H104.777V44.0891ZM107.529 47.4639H107.54C107.713 47.7902 108.03 47.9899 108.443 47.9885C109.156 47.9885 109.615 47.4281 109.615 46.536C109.615 45.6466 109.153 45.0863 108.446 45.0863C108.048 45.0863 107.727 45.2831 107.559 45.6094H107.545V44.0881H106.969V47.9417H107.529V47.4639ZM108.287 47.5011C107.85 47.5011 107.543 47.1225 107.543 46.5374C107.543 45.9578 107.85 45.5736 108.287 45.5736C108.74 45.5736 109.021 45.9467 109.021 46.5374C109.021 47.1321 108.742 47.5011 108.287 47.5011ZM110.009 45.1325H110.559V45.6103H110.572C110.666 45.2812 110.917 45.0871 111.248 45.0871C111.331 45.0871 111.403 45.1009 111.445 45.1091V45.6461C111.4 45.6268 111.298 45.6144 111.186 45.6144C110.815 45.6144 110.586 45.8622 110.586 46.2601V47.9425H110.009V45.1325ZM112.621 46.3139C111.954 46.3511 111.578 46.6526 111.578 47.1441C111.578 47.648 111.963 47.9894 112.511 47.9894C112.88 47.9894 113.236 47.7925 113.398 47.48H113.412V47.9426H113.964V46.0069C113.964 45.4438 113.529 45.0831 112.847 45.0831C112.152 45.0831 111.72 45.4576 111.688 45.9642H112.233C112.284 45.7123 112.493 45.5526 112.827 45.5526C113.179 45.5526 113.39 45.7398 113.39 46.0523V46.2685L112.621 46.3139ZM113.391 46.6677V46.8894C113.391 47.2556 113.076 47.5337 112.672 47.5337C112.363 47.5337 112.16 47.3726 112.16 47.1276C112.16 46.8866 112.356 46.7338 112.7 46.7104L113.391 46.6677ZM114.47 45.1324H115.019V45.6018H115.033C115.186 45.2811 115.485 45.0842 115.917 45.0842C116.536 45.0842 116.892 45.4793 116.892 46.1223V47.941H116.312V46.2352C116.312 45.8139 116.114 45.5812 115.715 45.5812C115.308 45.5812 115.047 45.8689 115.047 46.3054V47.9423H114.47V45.1324ZM118.438 45.0876C117.733 45.0876 117.263 45.6507 117.263 46.5373C117.263 47.424 117.733 47.9898 118.443 47.9898C118.852 47.9898 119.173 47.7847 119.338 47.4639H119.349V47.9416H119.91V44.0881H119.33V45.5998H119.319C119.162 45.29 118.841 45.0876 118.438 45.0876ZM118.595 47.5011C118.139 47.5011 117.853 47.1307 117.853 46.5373C117.853 45.9481 118.139 45.5736 118.595 45.5736C119.038 45.5736 119.334 45.955 119.334 46.5373C119.334 47.1252 119.038 47.5011 118.595 47.5011ZM120.42 44.3928C120.42 44.2083 120.57 44.061 120.753 44.061C120.94 44.061 121.089 44.2083 121.089 44.3928C121.089 44.5745 120.939 44.7218 120.753 44.7218C120.57 44.7218 120.42 44.5745 120.42 44.3928ZM120.465 45.1321H121.042V47.9407H120.465V45.1321ZM122.129 45.1323H121.579V47.9422H122.156V46.3053C122.156 45.8688 122.418 45.5811 122.824 45.5811C123.223 45.5811 123.421 45.8138 123.421 46.2351V47.9409H124.001V46.1222C124.001 45.4792 123.646 45.0841 123.026 45.0841C122.594 45.0841 122.295 45.281 122.142 45.6017H122.129V45.1323ZM124.477 48.16H125.057C125.139 48.3955 125.396 48.5497 125.725 48.5497C126.176 48.5497 126.443 48.2936 126.443 47.9095V47.4469H126.432C126.275 47.7511 125.944 47.9521 125.543 47.9521C124.838 47.9521 124.377 47.4014 124.377 46.5258C124.377 45.6419 124.835 45.0871 125.557 45.0871C125.955 45.0871 126.281 45.2881 126.452 45.613H126.461V45.1325H127.022V47.8902C127.022 48.5607 126.504 48.9985 125.703 48.9985C125.04 48.9985 124.549 48.646 124.477 48.16ZM126.445 46.5286C126.445 45.9517 126.149 45.5731 125.697 45.5731C125.254 45.5731 124.966 45.9448 124.966 46.5286C124.966 47.1165 125.254 47.4744 125.697 47.4744C126.149 47.4744 126.445 47.1082 126.445 46.5286Z" fill="black"/>
</svg>
