<svg width="136" height="68" viewBox="0 0 136 68" fill="none" xmlns="http://www.w3.org/2000/svg">
<mask id="mask0_4_382" style="mask-type:luminance" maskUnits="userSpaceOnUse" x="17" y="19" width="103" height="30">
<path d="M17 19H120V49H17V19Z" fill="white"/>
</mask>
<g mask="url(#mask0_4_382)">
<path d="M120 44.7309C119.2 45.3595 118.305 45.857 117.349 46.2049C116.585 46.4839 115.797 46.6749 115 46.8209C113.831 47.0341 112.64 47.1063 111.454 47.0359C110.104 46.9559 108.791 46.6959 107.533 46.1879C105.798 45.4879 104.412 44.3559 103.352 42.8209C102.476 41.5509 101.9 40.1479 101.535 38.6549C101.273 37.5482 101.117 36.4191 101.069 35.2829C101.031 34.619 101.021 33.9537 101.041 33.2889C101.105 31.6139 101.312 29.9629 101.894 28.3789C102.416 26.9589 103.132 25.6449 104.15 24.5159C105.431 23.0792 107.092 22.0334 108.942 21.4989C109.999 21.186 111.091 21.0037 112.192 20.9559C113.2 20.9129 114.202 20.9599 115.201 21.0639C116.466 21.2015 117.713 21.4699 118.922 21.8649C118.968 21.8799 119.011 21.9029 119.057 21.9189C119.113 21.9389 119.129 21.9839 119.122 22.0329C119.112 22.1029 119.089 22.1729 119.072 22.2429L118.183 25.9089L118.176 25.9439C118.144 26.0599 118.111 26.0799 117.994 26.0369C117.415 25.8227 116.818 25.6601 116.21 25.5509C115.314 25.3879 114.408 25.3429 113.498 25.3319C112.868 25.3208 112.238 25.372 111.618 25.4849C110.629 25.6709 109.709 26.0229 108.916 26.6599C108.189 27.2486 107.605 27.9951 107.209 28.8429C106.793 29.7119 106.539 30.6279 106.393 31.5779C106.198 32.8409 106.193 34.1099 106.273 35.3779C106.347 36.5669 106.585 37.7259 107.057 38.8279C107.443 39.7299 107.964 40.5339 108.699 41.1939C109.515 41.9279 110.476 42.3469 111.543 42.5549C111.938 42.6319 112.339 42.6719 112.735 42.6679C113.659 42.6569 114.57 42.5349 115.422 42.1399C115.597 42.0589 115.76 41.9519 115.929 41.8599C115.995 41.8297 116.05 41.7796 116.086 41.7166C116.121 41.6536 116.137 41.581 116.129 41.5089C116.116 41.1819 116.125 40.8549 116.125 40.5289V37.3329C116.125 36.9709 116.118 37.0279 115.809 36.9889C115.256 36.9189 114.701 36.8689 114.148 36.8109L111.692 36.5509C111.415 36.5209 111.138 36.4909 110.862 36.4579C110.694 36.4379 110.693 36.4319 110.686 36.2529V36.1429V33.7479C110.686 33.6879 110.688 33.6269 110.69 33.5669C110.693 33.4939 110.736 33.4609 110.806 33.4569C110.854 33.4539 110.902 33.4529 110.951 33.4529H119.821C119.881 33.4529 119.941 33.4639 120.001 33.4709V44.7289L120 44.7309ZM62.82 34.1069C62.82 30.1129 62.82 26.1179 62.822 22.1239C62.822 21.6839 62.738 21.7039 63.26 21.6149C65.1003 21.309 66.9607 21.1389 68.826 21.1059C69.006 21.1049 69.188 21.0829 69.37 21.0809C70.68 21.0729 71.983 21.1589 73.28 21.3519C74.575 21.5459 75.808 21.9239 76.92 22.6289C78.585 23.6819 79.662 25.1569 80.083 27.0929C80.233 27.7819 80.298 28.4779 80.304 29.1809C80.311 29.9089 80.278 30.6309 80.154 31.3509C79.8996 32.8658 79.1853 34.2658 78.108 35.3609C76.998 36.5049 75.641 37.2159 74.111 37.6149C72.9497 37.9201 71.7527 38.0688 70.552 38.0569C70.092 38.0529 69.632 38.0599 69.172 38.0429C68.76 38.0269 68.35 37.9859 67.939 37.9549C67.747 37.9399 67.741 37.9429 67.737 38.1449C67.736 38.2299 67.737 38.3149 67.737 38.3999V46.3169C67.733 46.5529 67.733 46.5569 67.494 46.5569H62.986C62.843 46.5499 62.828 46.5349 62.824 46.3819C62.821 46.2729 62.822 46.1639 62.822 46.0559V34.1089L62.82 34.1069ZM67.735 29.5709V33.1999C67.735 33.2959 67.733 33.3929 67.736 33.4899C67.74 33.5939 67.778 33.6369 67.883 33.6619C67.93 33.6729 67.978 33.6799 68.027 33.6859C69.26 33.8259 70.491 33.8229 71.717 33.6079C72.2667 33.5149 72.7957 33.326 73.28 33.0499C73.6827 32.825 74.036 32.5213 74.3188 32.1569C74.6016 31.7925 74.8081 31.3748 74.926 30.9289C75.1023 30.286 75.1645 29.6173 75.11 28.9529C75.075 28.4809 74.992 28.0179 74.785 27.5859C74.345 26.6629 73.62 26.0589 72.67 25.7109C72.028 25.4759 71.355 25.3909 70.678 25.3489C69.903 25.3009 69.129 25.3529 68.358 25.4249C68.189 25.4409 68.022 25.4699 67.854 25.4949C67.787 25.5049 67.746 25.5489 67.742 25.6169C67.7372 25.7135 67.7352 25.8102 67.736 25.9069V29.5719L67.735 29.5709ZM98.977 41.5219C99.072 41.8919 99.17 42.2639 99.264 42.6389C99.4869 43.53 99.7089 44.4213 99.93 45.3129C99.973 45.5179 99.972 45.5269 99.8 45.6399C99.158 46.0639 98.453 46.3469 97.712 46.5449C97.022 46.7299 96.317 46.8409 95.607 46.9289C94.597 47.0567 93.5774 47.0918 92.561 47.0339C91.039 46.9459 89.567 46.6279 88.176 45.9819C87.3201 45.5796 86.532 45.0465 85.84 44.4019C84.686 43.3399 83.885 42.0419 83.288 40.6079C82.778 39.3819 82.482 38.1039 82.318 36.7879C82.14 35.3669 82.123 33.9399 82.2 32.5149C82.277 31.0859 82.5 29.6779 82.985 28.3229C83.378 27.2249 83.892 26.1849 84.578 25.2379C85.908 23.4049 87.654 22.1459 89.831 21.4949C90.8515 21.1868 91.9062 21.0064 92.971 20.9579C93.905 20.9179 94.834 20.9679 95.762 21.0409C96.817 21.1239 97.845 21.3429 98.857 21.6409C99.054 21.6989 99.247 21.7709 99.439 21.8449C99.595 21.9039 99.61 21.9269 99.576 22.0829C99.506 22.4139 99.426 22.7429 99.35 23.0729C99.13 24.0269 98.908 24.9799 98.686 25.9329C98.658 26.0559 98.618 26.0799 98.511 26.0329C97.59 25.6269 96.613 25.4729 95.619 25.3949C95.0156 25.3472 94.4103 25.3275 93.805 25.3359C92.961 25.3469 92.142 25.4879 91.364 25.8219C89.968 26.4189 88.959 27.4199 88.302 28.7809C87.931 29.5489 87.708 30.3629 87.563 31.2009C87.359 32.3859 87.3 33.5809 87.359 34.7789C87.419 36.0279 87.614 37.2549 88.069 38.4289C88.387 39.2489 88.821 39.9989 89.424 40.6459C90.3007 41.597 91.4602 42.2408 92.731 42.4819C93.678 42.6719 94.631 42.6549 95.588 42.5689C96.6022 42.4722 97.59 42.1899 98.502 41.7359C98.642 41.6669 98.782 41.5939 98.922 41.5239C98.93 41.5189 98.944 41.5239 98.975 41.5239L98.977 41.5219ZM58.136 33.9959V48.5209C58.136 49.0739 58.202 48.9919 57.651 48.9999C57.578 48.9999 57.506 48.9999 57.433 48.9969C57.363 48.9949 57.319 48.9569 57.314 48.8869C57.308 48.8029 57.309 48.7189 57.309 48.6339V19.3669C57.309 18.9629 57.276 19.0009 57.685 19.0029C58.197 19.0059 58.136 18.9349 58.136 19.4359C58.138 24.2899 58.137 29.1439 58.137 33.9969L58.136 33.9959ZM32.073 43.1239V42.3979C32.073 42.0439 32.129 41.6979 32.243 41.3639C32.463 40.7129 32.907 40.3169 33.596 40.1999C33.949 40.1399 34.297 40.1529 34.64 40.2429C35.07 40.3559 35.395 40.6129 35.61 41.0049C35.752 41.2649 35.81 41.5479 35.842 41.8379C35.852 41.9279 35.816 41.9639 35.716 41.9679C35.619 41.9719 35.522 41.9699 35.425 41.9699C35.133 41.9669 35.114 42.0079 35.049 41.6779C34.922 41.0259 34.46 40.7079 33.723 40.8539C33.324 40.9319 33.09 41.1869 32.96 41.5519C32.854 41.8519 32.824 42.1659 32.816 42.4799C32.806 42.9159 32.806 43.3509 32.816 43.7869C32.822 44.0889 32.862 44.3899 32.967 44.6769C33.0314 44.857 33.1356 45.0203 33.2719 45.1546C33.4081 45.2889 33.5728 45.3908 33.7539 45.4527C33.9349 45.5146 34.1275 45.5349 34.3175 45.5121C34.5074 45.4892 34.6898 45.4239 34.851 45.3209C35.031 45.2109 35.128 45.0739 35.111 44.8479C35.091 44.5719 35.109 44.2919 35.106 44.0139C35.104 43.8219 35.083 43.8019 34.903 43.7989C34.673 43.7949 34.443 43.7989 34.213 43.7959C34.049 43.7939 34.036 43.7839 34.036 43.6379C34.039 43.1019 33.962 43.1619 34.481 43.1589C34.881 43.1569 35.281 43.1569 35.68 43.1609C35.826 43.1619 35.852 43.1879 35.853 43.3309C35.855 43.9479 35.853 44.5639 35.857 45.1809C35.8596 45.29 35.819 45.3957 35.744 45.4749C35.5082 45.7542 35.1928 45.9552 34.84 46.0509C34.4416 46.1613 34.0231 46.1784 33.617 46.1009C32.99 45.9759 32.555 45.5979 32.301 45.0169C32.152 44.6713 32.0744 44.2992 32.073 43.9229C32.069 43.6569 32.073 43.3899 32.073 43.1239ZM49.71 32.3619C49.77 32.0879 49.922 31.9519 50.165 31.9549C50.213 31.9549 50.262 31.9549 50.31 31.9569C50.38 31.9579 50.423 31.9919 50.426 32.0639C50.429 32.1489 50.431 32.2339 50.431 32.3179V36.3119C50.431 36.6049 50.406 36.8899 50.284 37.1619C50.2141 37.3307 50.1083 37.4823 49.974 37.6061C49.8396 37.7299 49.6799 37.823 49.506 37.8789C48.846 38.0949 48.24 37.9529 47.687 37.5539C47.535 37.4439 47.559 37.3959 47.633 37.2829C47.686 37.2009 47.729 37.1149 47.781 37.0329C47.834 36.9509 47.872 36.9429 47.953 37.0109C48.243 37.2579 48.574 37.3789 48.958 37.3419C49.358 37.3039 49.608 37.0839 49.678 36.6929C49.706 36.5269 49.713 36.3569 49.725 36.1889C49.728 36.1299 49.74 36.0569 49.685 36.0219C49.623 35.9819 49.578 36.0449 49.534 36.0839C49.227 36.3519 48.866 36.4039 48.479 36.3379C48.3109 36.3109 48.1505 36.2484 48.0085 36.1546C47.8664 36.0608 47.7459 35.9378 47.655 35.7939C47.5264 35.6023 47.438 35.3866 47.395 35.1599C47.2482 34.4223 47.2595 33.6619 47.428 32.9289C47.464 32.7749 47.53 32.6319 47.608 32.4939C48.036 31.7289 49.138 31.7069 49.585 32.1969C49.617 32.2319 49.643 32.2739 49.71 32.3619ZM49.73 34.0919C49.73 33.8159 49.727 33.5369 49.733 33.2599C49.7377 33.1268 49.6979 32.9959 49.62 32.8879C49.41 32.5879 49.119 32.4819 48.768 32.5339C48.622 32.5499 48.4845 32.6108 48.3745 32.7082C48.2645 32.8057 48.1875 32.9348 48.154 33.0779C47.9687 33.7562 47.9663 34.4714 48.147 35.1509C48.234 35.4909 48.472 35.6809 48.822 35.7159C49.18 35.7529 49.456 35.6119 49.648 35.3059C49.7061 35.2143 49.7354 35.1073 49.732 34.9989C49.728 34.6969 49.73 34.3949 49.73 34.0939V34.0919ZM48.189 45.7899C48.133 45.8599 48.162 45.9469 48.162 46.0259C48.159 46.5339 48.162 47.0419 48.159 47.5499C48.159 47.7049 48.146 47.7189 47.991 47.7169C47.349 47.7089 47.448 47.8169 47.446 47.1959C47.441 45.5259 47.445 43.8559 47.445 42.1849C47.445 42.0749 47.445 41.9669 47.447 41.8579C47.447 41.7879 47.482 41.7449 47.553 41.7379C47.601 41.7329 47.649 41.7329 47.698 41.7319C47.954 41.7259 48.111 41.8429 48.168 42.0839C48.263 42.0719 48.302 41.9869 48.364 41.9339C48.932 41.4489 49.882 41.5979 50.272 42.2339C50.433 42.4979 50.514 42.7899 50.545 43.0919C50.5983 43.6222 50.5989 44.1565 50.547 44.6869C50.519 44.9769 50.441 45.2569 50.295 45.5139C50.088 45.8739 49.783 46.0849 49.365 46.1289C48.977 46.1709 48.617 46.1189 48.315 45.8429C48.283 45.8129 48.253 45.7659 48.189 45.7899ZM48.159 43.8999V44.8429C48.159 44.9259 48.155 45.0099 48.203 45.0879C48.373 45.3699 48.619 45.5279 48.948 45.5229C49.273 45.5179 49.531 45.3879 49.683 45.0809C49.791 44.8507 49.8457 44.5991 49.843 44.3449C49.847 44.0549 49.847 43.7649 49.843 43.4749C49.8419 43.2811 49.8116 43.0886 49.753 42.9039C49.578 42.3609 49.16 42.2419 48.693 42.3419C48.383 42.4079 48.163 42.7069 48.159 43.0299C48.156 43.3199 48.159 43.6099 48.159 43.8999ZM28.16 23.5869V21.1179V20.8279C28.16 20.7439 28.195 20.6899 28.287 20.6879C28.347 20.6859 28.407 20.6849 28.468 20.6849H30.031C30.214 20.6849 30.393 20.7049 30.571 20.7499C31.091 20.8849 31.447 21.2099 31.635 21.7029C31.835 22.2319 31.82 22.7739 31.62 23.3009C31.439 23.7789 31.065 24.0529 30.577 24.1709C30.3886 24.2173 30.195 24.2388 30.001 24.2349C29.687 24.2269 29.371 24.2319 29.056 24.2359C28.94 24.2379 28.91 24.2699 28.909 24.3929C28.906 24.9369 28.909 25.4819 28.906 26.0259C28.901 26.5889 28.976 26.4879 28.422 26.4989C28.373 26.4989 28.324 26.4989 28.276 26.4959C28.206 26.4909 28.166 26.4519 28.163 26.3819C28.159 26.2859 28.159 26.1879 28.159 26.0919L28.16 23.5869ZM28.904 22.4599V23.4359C28.904 23.5149 28.928 23.5869 29.019 23.5869C29.405 23.5869 29.793 23.6049 30.177 23.5739C30.573 23.5409 30.849 23.3139 30.955 22.9219C31.0428 22.6182 31.0369 22.2951 30.938 21.9949C30.811 21.6199 30.559 21.3729 30.153 21.3479C29.78 21.3249 29.405 21.3419 29.031 21.3429C28.943 21.3429 28.904 21.3999 28.904 21.4829V22.4599ZM17 34.0699C17.024 33.5999 17.022 33.1289 17.002 32.6579C17.004 32.5949 17.006 32.5319 17.01 32.4679L17.02 32.3769C17.039 32.0069 17.144 31.6619 17.32 31.3409C17.689 30.6699 18.277 30.3759 19.027 30.3829C19.183 30.3849 19.343 30.4069 19.494 30.4429C20.013 30.5659 20.374 30.8829 20.583 31.3699C20.631 31.4799 20.672 31.5969 20.693 31.7149C20.821 32.4699 20.888 32.3299 20.207 32.3409C20.034 32.3449 20.03 32.3369 20.006 32.1609C19.9836 31.9807 19.9424 31.8034 19.883 31.6319C19.766 31.3049 19.54 31.1199 19.198 31.0609C18.641 30.9639 18.19 31.1939 17.953 31.7069C17.8337 31.9592 17.769 32.2339 17.763 32.5129C17.755 33.0929 17.753 33.6729 17.763 34.2529C17.769 34.5569 17.84 34.8529 17.977 35.1269C18.0465 35.2652 18.1443 35.3873 18.2641 35.4853C18.3838 35.5833 18.5228 35.6551 18.6721 35.6959C18.8214 35.7367 18.9775 35.7457 19.1305 35.7223C19.2835 35.6989 19.4298 35.6435 19.56 35.5599C19.7033 35.4665 19.8116 35.3283 19.868 35.1669C19.954 34.9389 19.995 34.7019 20.022 34.4719C20.107 34.4069 20.195 34.4219 20.278 34.4239C20.876 34.4359 20.808 34.3149 20.706 34.9829C20.675 35.1839 20.593 35.3759 20.487 35.5559C20.301 35.8865 19.9971 36.1347 19.636 36.2509C19.3134 36.3589 18.9703 36.3918 18.633 36.3469C18.053 36.2689 17.623 35.9609 17.34 35.4549C17.1478 35.1171 17.0372 34.739 17.017 34.3509L17.007 34.2589L16.998 34.0689L17 34.0699ZM44.035 25.4939C44.144 25.5419 44.187 25.6189 44.239 25.6839C44.443 25.9339 44.504 25.9089 44.189 26.1989C44.109 26.2719 44.014 26.3309 43.918 26.3789C43.6576 26.5104 43.3713 26.5827 43.0796 26.5906C42.788 26.5986 42.4982 26.542 42.231 26.4249C41.741 26.2239 41.504 25.8049 41.399 25.3089C41.3519 25.0962 41.3301 24.8787 41.334 24.6609C41.345 24.2989 41.318 23.9359 41.38 23.5749C41.419 23.3234 41.4994 23.0801 41.618 22.8549C41.7248 22.6428 41.8845 22.4619 42.0818 22.3298C42.2791 22.1977 42.5072 22.1188 42.744 22.1009C42.949 22.0809 43.154 22.0899 43.358 22.1329C43.751 22.2169 44.038 22.4349 44.219 22.7929C44.307 22.9659 44.361 23.1499 44.399 23.3419C44.469 23.7099 44.489 24.2069 44.429 24.5479H42.4C42.316 24.5479 42.23 24.5479 42.147 24.5559C42.094 24.5589 42.055 24.5949 42.056 24.6479C42.064 24.9509 42.089 25.2529 42.244 25.5249C42.3021 25.6317 42.3842 25.7236 42.4838 25.7933C42.5834 25.8631 42.6978 25.9088 42.818 25.9269C43.222 25.9949 43.588 25.9239 43.891 25.6269C43.934 25.5849 43.981 25.5439 44.035 25.4939ZM42.908 23.9399H43.56C43.703 23.9329 43.74 23.8999 43.734 23.7739C43.729 23.5931 43.6994 23.4137 43.646 23.2409C43.541 22.9229 43.33 22.7429 43.023 22.7229C42.683 22.6999 42.409 22.8049 42.24 23.1249C42.13 23.3339 42.106 23.5599 42.07 23.7849C42.054 23.8829 42.11 23.9369 42.221 23.9389C42.451 23.9419 42.68 23.9389 42.909 23.9389L42.908 23.9399ZM35.172 25.4809C35.242 25.5579 35.301 25.6179 35.353 25.6829C35.571 25.9439 35.569 25.9559 35.331 26.1749C35.1415 26.3461 34.9105 26.4647 34.661 26.5189C34.2957 26.6082 33.9136 26.6027 33.551 26.5029C33.085 26.3739 32.775 26.0709 32.607 25.6249C32.5134 25.3884 32.4623 25.1372 32.456 24.8829C32.45 24.4129 32.416 23.9409 32.514 23.4729C32.576 23.1729 32.681 22.8939 32.867 22.6479C33.08 22.3659 33.359 22.1909 33.708 22.1259C33.9585 22.0794 34.2157 22.0825 34.465 22.1349C34.886 22.2199 35.183 22.4599 35.363 22.8499C35.476 23.0939 35.535 23.3539 35.558 23.6179C35.581 23.8819 35.573 24.1489 35.58 24.4149C35.582 24.5049 35.54 24.5479 35.45 24.5479H33.488C33.416 24.5479 33.343 24.5479 33.271 24.5559C33.219 24.5619 33.187 24.6009 33.184 24.6539C33.164 24.9609 33.211 25.2569 33.361 25.5289C33.471 25.7299 33.645 25.8639 33.865 25.9129C34.262 26.0029 34.635 25.9509 34.955 25.6749L35.172 25.4809ZM34.012 23.9359V23.9409H34.483C34.871 23.9409 34.881 23.9809 34.829 23.5309C34.8143 23.4232 34.7885 23.3173 34.752 23.2149C34.655 22.9249 34.459 22.7469 34.146 22.7229C33.822 22.6969 33.546 22.7869 33.375 23.0859C33.245 23.3119 33.207 23.5619 33.183 23.8149C33.176 23.8829 33.215 23.9329 33.286 23.9349C33.528 23.9369 33.77 23.9349 34.011 23.9349L34.012 23.9359ZM39.248 43.9029C39.252 43.5629 39.26 43.2249 39.356 42.8949C39.49 42.4359 39.742 42.0599 40.173 41.8319C40.369 41.7278 40.5843 41.6653 40.8056 41.6482C41.0268 41.6311 41.2492 41.6598 41.4589 41.7326C41.6685 41.8053 41.8609 41.9205 42.0241 42.0709C42.1872 42.2213 42.3176 42.4038 42.407 42.6069C42.442 42.6829 42.472 42.7629 42.493 42.8449C42.684 43.5749 42.691 44.3079 42.47 45.0279C42.313 45.5409 41.978 45.9259 41.445 46.0699C40.553 46.3099 39.758 45.9759 39.415 45.0799C39.3344 44.8774 39.2868 44.6634 39.274 44.4459L39.249 43.9019L39.248 43.9029ZM39.98 43.8919C39.989 44.0849 39.992 44.2779 40.008 44.4699C40.028 44.7009 40.101 44.9189 40.226 45.1149C40.3356 45.2986 40.5108 45.4339 40.7162 45.4937C40.9216 45.5534 41.142 45.5331 41.333 45.4369C41.608 45.3069 41.747 45.0669 41.808 44.7889C41.9306 44.2335 41.9333 43.6584 41.816 43.1019C41.7725 42.8873 41.6676 42.6899 41.514 42.5339C41.184 42.1979 40.684 42.1889 40.353 42.5319C40.2214 42.6741 40.1255 42.8454 40.073 43.0319C39.983 43.3129 39.987 43.6019 39.98 43.8919ZM24.862 34.1729C24.879 34.3859 24.847 34.6369 24.81 34.8889C24.776 35.1179 24.705 35.3369 24.592 35.5369C24.255 36.1319 23.737 36.4049 23.058 36.3609C22.404 36.3189 21.954 35.9759 21.692 35.3859C21.6239 35.2309 21.5755 35.068 21.548 34.9009C21.4653 34.3761 21.4663 33.8414 21.551 33.3169C21.5824 33.1258 21.6439 32.9408 21.733 32.7689C21.9156 32.3881 22.2413 32.0948 22.639 31.9528C23.0368 31.8109 23.4745 31.8318 23.857 32.0109C24.303 32.2109 24.575 32.5709 24.729 33.0229C24.822 33.2989 24.854 33.5879 24.862 33.8789C24.865 33.9629 24.862 34.0479 24.862 34.1729ZM24.132 34.1899C24.132 34.0419 24.139 33.9329 24.132 33.8259C24.11 33.5119 24.055 33.2089 23.895 32.9269C23.582 32.3729 22.771 32.3689 22.465 32.9219C22.376 33.0819 22.301 33.2449 22.271 33.4239C22.1916 33.8882 22.1916 34.3626 22.271 34.8269C22.304 35.0179 22.383 35.1929 22.486 35.3589C22.823 35.9039 23.703 35.8609 23.964 35.2489C24.016 35.1259 24.062 35.0029 24.083 34.8709C24.12 34.6309 24.147 34.3929 24.132 34.1909V34.1899ZM45.663 45.8199C45.597 45.8189 45.554 45.8649 45.506 45.8999C45.146 46.1629 44.742 46.1899 44.327 46.0999C44.009 46.0319 43.799 45.8159 43.666 45.5279C43.5751 45.3292 43.5202 45.1158 43.504 44.8979C43.4945 44.7654 43.4902 44.6327 43.491 44.4999V42.1069C43.491 42.0109 43.491 41.9139 43.501 41.8169C43.504 41.7899 43.54 41.7659 43.564 41.7419C43.572 41.7349 43.587 41.7349 43.599 41.7349C43.791 41.7369 43.985 41.7049 44.175 41.7569C44.274 41.9249 44.217 42.1089 44.218 42.2829C44.225 43.0449 44.223 43.8059 44.22 44.5679C44.22 44.7629 44.233 44.9539 44.31 45.1369C44.424 45.4089 44.615 45.5199 44.913 45.4839C45.021 45.4719 45.131 45.4649 45.229 45.4119C45.512 45.2549 45.692 45.0429 45.688 44.6939C45.679 43.8359 45.685 42.9779 45.685 42.1199C45.685 42.0229 45.685 41.9259 45.69 41.8299C45.693 41.7749 45.73 41.7469 45.783 41.7379C45.8068 41.7336 45.8309 41.7316 45.855 41.7319C46.512 41.7419 46.398 41.6329 46.402 42.2489C46.408 43.3839 46.403 44.5209 46.403 45.6569L46.402 45.9469C46.4 46.0169 46.364 46.0609 46.292 46.0639C46.1834 46.0686 46.0747 46.0706 45.966 46.0699C45.742 46.0679 45.742 46.0669 45.664 45.8189L45.663 45.8199ZM44.239 32.3159C44.336 32.2369 44.406 32.1729 44.482 32.1189C44.634 32.0075 44.8085 31.9306 44.9933 31.8935C45.1781 31.8563 45.3687 31.8599 45.552 31.9039C45.883 31.9739 46.116 32.1759 46.249 32.4839C46.339 32.6959 46.397 32.9189 46.403 33.1519C46.41 33.4169 46.413 33.6839 46.413 33.9489C46.415 34.6019 46.413 35.2549 46.413 35.9089C46.413 35.9929 46.415 36.0779 46.411 36.1619C46.407 36.2509 46.354 36.2889 46.269 36.2889H46.233C45.59 36.2789 45.689 36.3799 45.684 35.7659C45.679 34.9919 45.684 34.2179 45.682 33.4439C45.682 33.2989 45.683 33.1539 45.644 33.0129C45.518 32.5509 45.034 32.3629 44.643 32.6409C44.379 32.8289 44.206 33.0689 44.214 33.4289C44.232 34.2509 44.22 35.0739 44.22 35.8959C44.22 35.9919 44.218 36.0889 44.212 36.1849C44.209 36.2369 44.176 36.2719 44.122 36.2809C44.11 36.2819 44.098 36.2869 44.086 36.2869C43.398 36.2809 43.506 36.3909 43.504 35.7639C43.498 34.6279 43.502 33.4909 43.502 32.3539C43.502 32.2579 43.502 32.1599 43.507 32.0639C43.51 32.0129 43.534 31.9649 43.59 31.9639C43.759 31.9579 43.928 31.9589 44.097 31.9609C44.156 31.9609 44.177 32.0129 44.19 32.0579C44.21 32.1339 44.22 32.2119 44.24 32.3149L44.239 32.3159ZM26.489 32.2899C26.587 32.2659 26.643 32.1799 26.719 32.1229C27.031 31.8929 27.379 31.8289 27.753 31.8959C27.9096 31.9195 28.0578 31.9823 28.1836 32.0784C28.3095 32.1746 28.409 32.301 28.473 32.4459C28.593 32.7029 28.653 32.9759 28.655 33.2539C28.663 34.1979 28.658 35.1429 28.658 36.0859C28.6574 36.1221 28.6544 36.1581 28.649 36.1939C28.642 36.2509 28.603 36.2739 28.551 36.2819C28.5272 36.2862 28.5032 36.2886 28.479 36.2889C27.837 36.2789 27.935 36.3859 27.931 35.7679C27.925 34.9929 27.929 34.2179 27.93 33.4439C27.93 33.2869 27.925 33.1309 27.877 32.9779C27.755 32.5929 27.379 32.4029 27.014 32.5779C26.694 32.7309 26.471 32.9659 26.476 33.3629C26.486 34.1989 26.479 35.0329 26.478 35.8689C26.478 35.9529 26.481 36.0389 26.477 36.1229C26.471 36.2639 26.45 36.2899 26.299 36.2889C25.655 36.2809 25.753 36.3889 25.749 35.7689C25.745 34.6319 25.748 33.4939 25.748 32.3559C25.748 32.2599 25.748 32.1629 25.753 32.0659C25.756 31.9959 25.799 31.9599 25.87 31.9579C26.003 31.9559 26.136 31.9539 26.27 31.9559C26.409 31.9589 26.411 31.9639 26.433 32.0939C26.444 32.1599 26.409 32.2409 26.489 32.2899ZM35.57 36.0349C35.501 36.0299 35.463 36.0839 35.417 36.1179C35.092 36.3519 34.73 36.4009 34.345 36.3419C33.965 36.2839 33.707 36.0639 33.56 35.7159C33.4546 35.4707 33.3991 35.2068 33.397 34.9399C33.392 34.0099 33.394 33.0769 33.396 32.1459C33.396 31.9789 33.418 31.9599 33.583 31.9559C33.716 31.9529 33.85 31.9559 33.983 31.9559C34.073 31.9559 34.111 32.0099 34.111 32.0949C34.113 32.1909 34.113 32.2889 34.113 32.3849V34.5259C34.113 34.7679 34.123 35.0069 34.18 35.2459C34.258 35.5699 34.52 35.8059 34.956 35.6909C35.075 35.6655 35.187 35.6143 35.284 35.5409C35.467 35.3899 35.585 35.2159 35.581 34.9539C35.568 34.1079 35.576 33.2609 35.576 32.4139C35.576 32.3299 35.578 32.2449 35.576 32.1599C35.573 31.9879 35.6 31.9509 35.786 31.9549C36.392 31.9679 36.303 31.8579 36.306 32.4659C36.31 33.6029 36.306 34.7399 36.306 35.8759C36.306 35.9729 36.308 36.0699 36.304 36.1659C36.3 36.2329 36.267 36.2809 36.194 36.2849C36.0974 36.2886 36.0007 36.2899 35.904 36.2889C35.671 36.2889 35.672 36.2879 35.598 36.0559C35.595 36.0459 35.58 36.0409 35.571 36.0339L35.57 36.0349ZM32.462 33.1929H31.997C31.791 33.1899 31.79 33.1899 31.712 32.9729C31.537 32.4899 31.073 32.4349 30.73 32.5729C30.378 32.7159 30.276 33.2699 30.634 33.4929C30.81 33.6029 30.994 33.6909 31.184 33.7709C31.442 33.8789 31.694 33.9939 31.934 34.1359C32.397 34.4069 32.578 34.8159 32.501 35.3309C32.426 35.8409 32.103 36.1489 31.624 36.2919C31.2614 36.3995 30.8749 36.3963 30.514 36.2829C30.256 36.2083 30.0268 36.0571 29.8567 35.8492C29.6867 35.6413 29.5839 35.3866 29.562 35.1189C29.554 35.0319 29.593 34.9829 29.686 34.9799C29.843 34.9759 30 34.9799 30.159 34.9769C30.229 34.9769 30.275 35.0049 30.294 35.0709C30.314 35.1409 30.324 35.2139 30.348 35.2809C30.409 35.4459 30.516 35.5759 30.678 35.6499C30.933 35.7659 31.198 35.7719 31.453 35.6649C31.833 35.5049 31.904 35.0499 31.596 34.7749C31.432 34.6289 31.233 34.5349 31.036 34.4429C30.849 34.3549 30.66 34.2749 30.473 34.1879C30.407 34.1579 30.344 34.1219 30.281 34.0859C29.878 33.8559 29.662 33.5179 29.686 33.0449C29.711 32.5799 29.941 32.2369 30.349 32.0339C30.5709 31.9187 30.8172 31.8584 31.0673 31.8581C31.3173 31.8577 31.5638 31.9173 31.786 32.0319C32.236 32.2549 32.458 32.6399 32.462 33.1929ZM48.27 23.6639H47.603C47.577 23.5489 47.556 23.4339 47.525 23.3209C47.415 22.9229 47.185 22.7319 46.811 22.7209C46.397 22.7109 46.106 22.9039 45.98 23.2859C45.939 23.4109 45.91 23.5439 45.9 23.6759C45.865 24.1089 45.866 24.5449 45.898 24.9779C45.907 25.1099 45.935 25.2419 45.973 25.3679C46.081 25.7319 46.303 25.9099 46.677 25.9429C46.761 25.9509 46.847 25.9479 46.929 25.9389C47.0565 25.9283 47.1781 25.881 47.2793 25.8028C47.3804 25.7245 47.4567 25.6186 47.499 25.4979C47.543 25.3869 47.565 25.2669 47.6 25.1399C47.81 25.0979 48.022 25.1179 48.235 25.1219C48.244 25.9069 47.698 26.5149 46.95 26.5719C46.7208 26.5925 46.4897 26.5733 46.267 26.5149C45.827 26.3959 45.526 26.1199 45.344 25.7109C45.2456 25.4895 45.1864 25.2526 45.169 25.0109C45.1333 24.5532 45.1343 24.0934 45.172 23.6359C45.197 23.3449 45.28 23.0669 45.425 22.8109C45.633 22.4429 45.947 22.2179 46.363 22.1349C46.5292 22.1019 46.6987 22.0885 46.868 22.0949C47.582 22.1159 48.102 22.5659 48.225 23.2699C48.245 23.3879 48.253 23.5079 48.272 23.6649L48.27 23.6639ZM40.847 20.3439C40.897 20.4739 40.874 20.5939 40.867 20.7139C40.856 20.9009 40.871 20.9809 40.616 20.9429C40.568 20.9359 40.519 20.9399 40.471 20.9429C40.241 20.9549 40.091 21.0729 40.005 21.2839C39.902 21.5409 39.932 21.8069 39.938 22.0719C39.938 22.1249 39.978 22.1579 40.032 22.1609C40.202 22.1659 40.371 22.1679 40.54 22.1729C40.61 22.1759 40.654 22.2149 40.655 22.2859C40.655 22.4289 40.675 22.5749 40.636 22.7229C40.459 22.7829 40.276 22.7449 40.098 22.7569C39.958 22.7669 39.938 22.7849 39.933 22.9329C39.929 23.0169 39.931 23.1019 39.931 23.1869V26.0869C39.931 26.1839 39.931 26.2809 39.927 26.3769C39.925 26.4469 39.888 26.4869 39.817 26.4949C39.794 26.4969 39.77 26.4999 39.746 26.4989C39.106 26.4859 39.206 26.6029 39.203 25.9769C39.197 25.0349 39.201 24.0919 39.201 23.1489C39.201 23.0529 39.201 22.9559 39.195 22.8589C39.1938 22.8344 39.1837 22.8112 39.1666 22.7937C39.1494 22.7762 39.1265 22.7656 39.102 22.7639C39.005 22.7569 38.908 22.7599 38.812 22.7549C38.649 22.7469 38.637 22.7339 38.632 22.5569C38.6305 22.4969 38.6305 22.4369 38.632 22.3769C38.637 22.1869 38.649 22.1769 38.841 22.1669C38.948 22.1609 39.079 22.2079 39.157 22.1329C39.249 22.0449 39.198 21.9029 39.2 21.7849C39.203 21.5669 39.21 21.3519 39.274 21.1399C39.442 20.5709 39.86 20.2629 40.501 20.2799C40.549 20.2819 40.597 20.2899 40.645 20.2999C40.715 20.3129 40.783 20.3299 40.849 20.3439H40.847ZM50.647 25.9129C50.647 26.0969 50.645 26.2409 50.647 26.3839C50.647 26.4739 50.595 26.5099 50.519 26.5309C50.341 26.5819 50.16 26.5939 49.979 26.5649C49.8585 26.5478 49.7442 26.5004 49.6469 26.4274C49.5495 26.3543 49.4721 26.2578 49.422 26.1469C49.312 25.9239 49.291 25.6859 49.291 25.4419V23.1569C49.29 22.7579 49.337 22.7469 48.906 22.7529L48.76 22.7509C48.69 22.7509 48.649 22.7149 48.64 22.6449C48.637 22.6219 48.637 22.5969 48.637 22.5729C48.639 22.1219 48.599 22.1689 49.008 22.1649C49.287 22.1619 49.288 22.1589 49.291 21.8829C49.294 21.6429 49.295 21.4029 49.297 21.1529C49.534 21.1159 49.747 21.1249 49.967 21.1469C50.017 21.3949 49.987 21.6369 49.993 21.8769C50.001 22.1589 49.998 22.1589 50.269 22.1669H50.342C50.649 22.1669 50.652 22.1409 50.648 22.4929C50.648 22.5419 50.648 22.5909 50.645 22.6379C50.639 22.7069 50.603 22.7479 50.531 22.7489C50.398 22.7529 50.265 22.7499 50.131 22.7569C50.051 22.7609 49.998 22.8059 49.997 22.8949C49.997 22.9429 49.994 22.9909 49.994 23.0399C49.994 23.7889 49.993 24.5389 49.996 25.2879C49.996 25.3959 50.007 25.5059 50.028 25.6109C50.077 25.8509 50.163 25.9189 50.398 25.9219C50.468 25.9219 50.54 25.9159 50.648 25.9109L50.647 25.9129ZM40.161 30.9379C40.161 31.2229 40.159 31.5009 40.161 31.7779C40.163 31.9299 40.18 31.9479 40.323 31.9529C40.433 31.9569 40.541 31.9529 40.65 31.9559C40.78 31.9599 40.812 31.9809 40.81 32.0949C40.81 32.5999 40.884 32.5349 40.412 32.5389L40.303 32.5409C40.219 32.5409 40.166 32.5769 40.162 32.6659C40.159 32.7149 40.159 32.7629 40.159 32.8119C40.159 33.5739 40.158 34.3359 40.161 35.0969C40.161 35.2059 40.169 35.3159 40.193 35.4209C40.244 35.6389 40.356 35.7159 40.585 35.7099C40.645 35.7079 40.705 35.6949 40.779 35.6849C40.841 35.8619 40.812 36.0399 40.803 36.2169C40.801 36.2439 40.768 36.2749 40.743 36.2969C40.726 36.3109 40.698 36.3119 40.674 36.3169C40.005 36.4919 39.554 36.1969 39.469 35.5469C39.4535 35.4272 39.4455 35.3066 39.445 35.1859C39.442 34.4599 39.444 33.7349 39.444 33.0089V32.7919C39.439 32.5459 39.438 32.5449 39.208 32.5419C39.123 32.5399 39.038 32.5429 38.953 32.5399C38.789 32.5339 38.779 32.5229 38.775 32.3429C38.773 32.2829 38.775 32.2229 38.775 32.1609C38.772 31.9879 38.8 31.9579 38.985 31.9529C39.126 31.9489 39.299 32.0189 39.403 31.9149C39.506 31.8109 39.427 31.6379 39.443 31.4969C39.466 31.3109 39.394 31.1159 39.496 30.9369C39.71 30.8899 39.924 30.9009 40.16 30.9389L40.161 30.9379ZM37.408 33.1799V30.5339C37.408 30.4369 37.411 30.3409 37.415 30.2439C37.418 30.1909 37.449 30.1569 37.503 30.1469C37.5267 30.1422 37.5508 30.1398 37.575 30.1399C38.219 30.1509 38.121 30.0349 38.123 30.6559C38.128 32.3839 38.125 34.1109 38.125 35.8389C38.125 35.9349 38.127 36.0319 38.123 36.1289C38.118 36.2529 38.09 36.2869 37.979 36.2889C37.834 36.2929 37.689 36.2919 37.544 36.2889C37.457 36.2879 37.411 36.2379 37.41 36.1529C37.408 36.0559 37.408 35.9589 37.408 35.8629V33.1779V33.1799ZM36.928 43.9079V42.0939C36.928 42.0089 36.928 41.9239 36.931 41.8399C36.934 41.7659 36.981 41.7349 37.049 41.7339C37.17 41.7329 37.291 41.7309 37.412 41.7329C37.578 41.7339 37.578 41.7359 37.64 41.9219C37.665 41.9969 37.706 42.0109 37.767 41.9479C37.8651 41.8394 37.9887 41.7571 38.1267 41.7085C38.2647 41.6599 38.4126 41.6467 38.557 41.6699C38.687 41.6869 38.715 41.7179 38.721 41.8589C38.725 41.9189 38.725 41.9799 38.721 42.0399C38.716 42.1479 38.76 42.2699 38.696 42.3599C38.622 42.4619 38.494 42.3859 38.392 42.3899C37.947 42.4119 37.662 42.7049 37.662 43.1659C37.657 44.0119 37.662 44.8589 37.66 45.7059C37.66 46.0869 37.703 46.0729 37.282 46.0719C36.894 46.0709 36.928 46.0959 36.927 45.7219V43.9079H36.928ZM36.39 24.3359V22.5219C36.39 22.4369 36.392 22.3519 36.398 22.2689C36.399 22.2445 36.4093 22.2214 36.4268 22.2043C36.4442 22.1872 36.4676 22.1774 36.492 22.1769C36.625 22.1689 36.758 22.1669 36.89 22.1669C37.056 22.1689 37.056 22.1709 37.11 22.3649C37.13 22.4419 37.18 22.4599 37.236 22.3989C37.3269 22.2926 37.4417 22.2095 37.5711 22.1565C37.7005 22.1034 37.8407 22.082 37.98 22.0939C38.151 22.1059 38.192 22.1439 38.196 22.3119C38.2 22.4319 38.2 22.5529 38.196 22.6739C38.192 22.8189 38.176 22.8319 38.026 22.8329C37.965 22.8329 37.905 22.8269 37.845 22.8309C37.6554 22.8389 37.4759 22.9185 37.3427 23.0536C37.2095 23.1887 37.1324 23.3692 37.127 23.5589C37.116 23.8359 37.125 24.1149 37.125 24.3929V26.1349C37.125 26.2189 37.124 26.3039 37.12 26.3879C37.117 26.4589 37.074 26.4939 37.003 26.4969C36.9547 26.4983 36.9063 26.499 36.858 26.4989C36.333 26.4929 36.392 26.5649 36.391 26.0409C36.388 25.4719 36.39 24.9039 36.39 24.3359ZM42.415 34.0899V35.9719C42.415 36.0439 42.413 36.1159 42.407 36.1879C42.402 36.2399 42.371 36.2809 42.316 36.2819C42.146 36.2869 41.978 36.2879 41.809 36.2859C41.742 36.2859 41.696 36.2479 41.689 36.1779C41.6849 36.118 41.6833 36.0579 41.684 35.9979V32.2349C41.684 32.1749 41.687 32.1149 41.691 32.0549C41.695 31.9989 41.731 31.9709 41.784 31.9629C41.796 31.9609 41.808 31.9579 41.819 31.9579C42.522 31.9709 42.404 31.8359 42.412 32.4989C42.419 33.0289 42.414 33.5609 42.414 34.0909L42.415 34.0899ZM42.474 30.8369C42.4742 30.9125 42.4542 30.9867 42.4159 31.052C42.3777 31.1172 42.3227 31.171 42.2567 31.2077C42.1906 31.2445 42.1159 31.2628 42.0404 31.2609C41.9648 31.259 41.8911 31.2369 41.827 31.1969C41.7532 31.1543 41.6992 31.0842 41.677 31.0019C41.6622 30.9437 41.6548 30.8839 41.655 30.8239C41.653 30.5459 41.811 30.3769 42.064 30.3829C42.304 30.3879 42.479 30.5829 42.474 30.8369Z" fill="#0E1DB0"/>
</g>
</svg>
