<svg width="24" height="25" viewBox="0 0 24 25" fill="none" xmlns="http://www.w3.org/2000/svg">
<path d="M0 12.3896C0 5.76223 5.37258 0.389648 12 0.389648C18.6274 0.389648 24 5.76223 24 12.3896C24 19.017 18.6274 24.3896 12 24.3896C5.37258 24.3896 0 19.017 0 12.3896Z" fill="#BA8D5B"/>
<path fill-rule="evenodd" clip-rule="evenodd" d="M8.65948 7.801C8.65948 8.58555 8.06892 9.21332 7.12069 9.21332H7.10331C6.19033 9.21332 5.6001 8.58555 5.6001 7.801C5.6001 6.99985 6.2083 6.38965 7.13861 6.38965C8.06892 6.38965 8.64183 6.99985 8.65948 7.801ZM8.48039 10.3285V18.4993H5.76093V10.3285H8.48039ZM18.288 18.4994L18.2881 13.8145C18.2881 11.3048 16.9465 10.1368 15.157 10.1368C13.7131 10.1368 13.0667 10.9298 12.7057 11.4861V10.3289H9.98596C10.0218 11.0955 9.98596 18.4997 9.98596 18.4997H12.7057V13.9364C12.7057 13.6922 12.7234 13.4486 12.7953 13.2737C12.9918 12.7859 13.4394 12.2808 14.1907 12.2808C15.1751 12.2808 15.5686 13.03 15.5686 14.128V18.4994H18.288Z" fill="white"/>
</svg>
