<svg width="25" height="25" viewBox="0 0 25 25" fill="none" xmlns="http://www.w3.org/2000/svg">
<mask id="mask0_1_7241" style="mask-type:luminance" maskUnits="userSpaceOnUse" x="0" y="0" width="25" height="25">
<path d="M24.2 0.0800781H0.199951V24.0801H24.2V0.0800781Z" fill="white"/>
</mask>
<g mask="url(#mask0_1_7241)">
<path d="M12.2 24.0801C18.8274 24.0801 24.2 18.7075 24.2 12.0801C24.2 5.45266 18.8274 0.0800781 12.2 0.0800781C5.57253 0.0800781 0.199951 5.45266 0.199951 12.0801C0.199951 18.7075 5.57253 24.0801 12.2 24.0801Z" fill="#BA8D5B"/>
<path d="M14.7494 5.41211H9.65615C7.38415 5.41211 5.53882 7.25744 5.53882 9.52944V14.6228C5.53882 16.8948 7.38415 18.7401 9.65615 18.7401H14.7494C17.0214 18.7401 18.8668 16.8948 18.8668 14.6228V9.52944C18.8668 7.25744 17.0214 5.41211 14.7494 5.41211ZM17.3788 14.6281C17.3788 16.0788 16.2001 17.2628 14.7441 17.2628H9.65082C8.20015 17.2628 7.01615 16.0841 7.01615 14.6281V9.53478C7.01615 8.08411 8.19482 6.90011 9.65082 6.90011H14.7441C16.1948 6.90011 17.3788 8.07878 17.3788 9.53478V14.6281Z" fill="white"/>
<path d="M12.1997 8.66992C10.3224 8.66992 8.79175 10.2006 8.79175 12.0779C8.79175 13.9553 10.3224 15.4859 12.1997 15.4859C14.077 15.4859 15.6077 13.9553 15.6077 12.0779C15.6077 10.2006 14.077 8.66992 12.1997 8.66992ZM12.1997 14.1473C11.0584 14.1473 10.1304 13.2193 10.1304 12.0779C10.1304 10.9366 11.0584 10.0086 12.1997 10.0086C13.341 10.0086 14.269 10.9366 14.269 12.0779C14.269 13.2193 13.341 14.1473 12.1997 14.1473Z" fill="white"/>
<path d="M15.8673 9.04297C16.1813 8.99207 16.3945 8.69628 16.3436 8.3823C16.2927 8.06832 15.9969 7.85505 15.683 7.90595C15.369 7.95685 15.1557 8.25264 15.2066 8.56662C15.2575 8.8806 15.5533 9.09387 15.8673 9.04297Z" fill="white"/>
</g>
</svg>
