<svg width="185" height="40" viewBox="0 0 185 40" fill="none" xmlns="http://www.w3.org/2000/svg">
<g clip-path="url(#clip0_1_7611)">
<mask id="mask0_1_7611" style="mask-type:luminance" maskUnits="userSpaceOnUse" x="0" y="0" width="185" height="40">
<path d="M185 0.00195312H0V39.7683H185V0.00195312Z" fill="white"/>
</mask>
<g mask="url(#mask0_1_7611)">
<path d="M0.000610352 11.4654C0.000610352 11.1914 0.122901 11.0545 0.367482 11.0545H1.57835C1.66388 11.0544 1.74806 11.0759 1.82313 11.1169C1.91877 11.1783 1.99267 11.2683 2.03429 11.3742L7.56851 22.3162L7.92418 23.3777L7.81267 22.308L7.72423 11.4654C7.72011 11.3586 7.75364 11.2539 7.81891 11.1694C7.8538 11.1294 7.89752 11.098 7.94661 11.0778C7.99569 11.0576 8.04879 11.0492 8.10169 11.0532H9.34741C9.44163 11.0497 9.53344 11.0836 9.60277 11.1475C9.66925 11.2104 9.70271 11.3126 9.70305 11.4542V26.5404C9.70305 26.8081 9.57312 26.9419 9.31317 26.9419H8.1347C8.04609 26.9397 7.95901 26.9184 7.87933 26.8794C7.78 26.8259 7.70458 26.7367 7.66817 26.6297L2.1682 15.8432L1.77891 14.7517L1.90349 15.8545L1.96764 26.5279C1.96764 26.8027 1.84909 26.94 1.61198 26.94H0.366237C0.122486 26.94 0.000610352 26.8027 0.000610352 26.5279V11.4654Z" fill="#0F1826"/>
<path d="M23.0019 26.5167C23.0462 26.6416 23.0412 26.7446 22.9858 26.8226C22.9572 26.8613 22.9195 26.8923 22.876 26.9127C22.8324 26.9331 22.7845 26.9423 22.7366 26.9394H21.3028C21.2171 26.9384 21.1331 26.9156 21.0586 26.8732C21.0139 26.8452 20.9757 26.8077 20.947 26.7633C20.9181 26.7191 20.8992 26.6689 20.8916 26.6166L20.1461 23.6868H15.345L14.6112 26.6166C14.6036 26.6688 14.5849 26.7189 14.5562 26.7631C14.5274 26.8075 14.4895 26.845 14.4449 26.8732C14.3701 26.9156 14.286 26.9383 14.2002 26.9394H12.7693C12.722 26.9429 12.6745 26.934 12.6315 26.9135C12.5887 26.893 12.5518 26.8617 12.5246 26.8226C12.4983 26.7765 12.4826 26.7252 12.4787 26.6722C12.4749 26.6193 12.4829 26.5661 12.5021 26.5167L16.7377 11.3873C16.7608 11.2829 16.8175 11.189 16.899 11.12C16.968 11.0682 17.0521 11.0408 17.1382 11.042H18.3715C18.4592 11.0416 18.5449 11.0688 18.6163 11.12C18.7002 11.1878 18.7589 11.2819 18.7826 11.3873L23.0019 26.5167ZM15.8214 21.8147H19.6776L17.9212 14.841L17.7548 13.6602L17.5879 14.841L15.8214 21.8147Z" fill="#0F1826"/>
<path d="M29.8448 11.4541C29.8448 11.3061 29.8815 11.2043 29.9563 11.1419C30.0212 11.0859 30.1037 11.0546 30.1893 11.0532H31.5228C31.6711 11.0532 31.772 11.092 31.8287 11.17C31.8896 11.2684 31.9188 11.3834 31.9121 11.499L31.9009 23.2746C31.9086 23.8283 31.8046 24.3777 31.5951 24.89C31.4084 25.3503 31.129 25.767 30.7743 26.114C30.4195 26.461 29.997 26.7307 29.5334 26.9063C29.0479 27.094 28.5314 27.1885 28.0111 27.1848C27.4405 27.1865 26.8752 27.0747 26.348 26.8558C25.8524 26.6607 25.4058 26.3587 25.04 25.9709C24.9606 25.8883 24.9 25.7895 24.8625 25.6812C24.8182 25.5619 24.8475 25.4507 24.9515 25.3465L25.6734 24.4998C25.7774 24.396 25.8789 24.3555 25.9792 24.3749C26.0852 24.4008 26.1804 24.4593 26.2514 24.5422C26.453 24.724 26.6795 24.8759 26.9242 24.9931C27.2301 25.1426 27.5673 25.2171 27.9076 25.2103C28.1755 25.2132 28.4408 25.1583 28.6857 25.0492C28.9192 24.944 29.1276 24.79 29.2973 24.5978C29.4744 24.3918 29.6102 24.1535 29.6972 23.8959C29.7957 23.6055 29.8442 23.3004 29.841 22.9936L29.8448 11.4541Z" fill="#0F1826"/>
<path d="M34.9662 16.1776C34.962 15.4711 35.067 14.7682 35.2777 14.094C35.4723 13.4651 35.7875 12.8806 36.2057 12.373C36.6241 11.8738 37.1479 11.474 37.7392 11.2028C38.3501 10.9168 39.0595 10.774 39.8676 10.7744C40.6674 10.7744 41.3733 10.9172 41.9854 11.2028C42.577 11.4747 43.1033 11.8713 43.5282 12.3655C43.9544 12.869 44.2759 13.4529 44.4737 14.0827C44.6878 14.7561 44.7945 15.4591 44.7901 16.1658V21.8369C44.7945 22.5427 44.6876 23.245 44.4737 23.9175C44.2765 24.5459 43.9572 25.129 43.5345 25.6335C43.111 26.1303 42.584 26.5279 41.9903 26.798C41.3746 27.084 40.6659 27.227 39.8645 27.227C39.0631 27.227 38.3592 27.0842 37.753 26.7986C37.1636 26.5265 36.6404 26.1292 36.2194 25.6341C35.7975 25.1293 35.4792 24.5459 35.2826 23.9175C35.0685 23.2441 34.9617 22.5411 34.9662 21.8344V16.1776ZM37.0217 21.9705C37.0181 22.4081 37.0797 22.8437 37.2042 23.2631C37.3156 23.6429 37.5009 23.9969 37.7492 24.3047C37.9911 24.5992 38.2946 24.8371 38.638 25.0015C39.0223 25.1787 39.4416 25.266 39.8645 25.2569C40.2895 25.2658 40.7111 25.1785 41.0977 25.0015C41.4446 24.8374 41.7517 24.5995 41.9978 24.3047C42.2489 24 42.436 23.6476 42.5478 23.2687C42.6744 22.8516 42.7373 22.4177 42.7347 21.9818V16.0216C42.7387 15.5892 42.6757 15.1588 42.5478 14.7459C42.4319 14.367 42.2455 14.0136 41.9984 13.7042C41.7554 13.4057 41.4498 13.1641 41.1034 12.9968C40.7168 12.8248 40.2989 12.7355 39.876 12.7346C39.4531 12.7336 39.0347 12.821 38.6474 12.9912C38.3006 13.155 37.9949 13.3948 37.753 13.693C37.5043 14.0026 37.3182 14.3575 37.2048 14.7383C37.0809 15.154 37.0194 15.5859 37.0223 16.0197L37.0217 21.9705Z" fill="#0F1826"/>
<path d="M46.677 11.4289C46.6732 11.3776 46.6796 11.3261 46.6958 11.2773C46.7121 11.2285 46.7378 11.1834 46.7716 11.1448C46.803 11.1136 46.8404 11.089 46.8815 11.0729C46.9227 11.0566 46.9667 11.049 47.0108 11.0505H55.9229C55.9654 11.0499 56.0074 11.0578 56.0466 11.0741C56.0858 11.0902 56.1213 11.1144 56.1509 11.1448C56.1849 11.1833 56.2109 11.2284 56.2273 11.2771C56.2436 11.326 56.2501 11.3776 56.2462 11.4289V12.6652C56.2462 12.7902 56.215 12.8826 56.1515 12.9382C56.0887 12.9938 56.0073 13.0237 55.9235 13.0218H52.4896V26.5607C52.4973 26.6635 52.4651 26.7653 52.4 26.8449C52.37 26.8763 52.3337 26.9009 52.2936 26.9172C52.2534 26.9334 52.2103 26.9409 52.167 26.9392H50.7649C50.7198 26.9417 50.6748 26.9346 50.6327 26.9184C50.5906 26.9021 50.5525 26.877 50.5207 26.8449C50.4552 26.7654 50.423 26.6635 50.4311 26.5607V13.0244H47.0108C46.9235 13.0275 46.8381 12.9976 46.7716 12.9407C46.7094 12.8851 46.677 12.7946 46.677 12.6678V11.4289Z" fill="#0F1826"/>
<path d="M126.012 11.4288C126.008 11.3776 126.014 11.3261 126.031 11.2773C126.046 11.2285 126.072 11.1835 126.106 11.1448C126.137 11.1136 126.175 11.0892 126.216 11.0729C126.257 11.0568 126.301 11.0491 126.345 11.0505H135.258C135.301 11.0498 135.342 11.0578 135.382 11.074C135.421 11.0902 135.456 11.1143 135.486 11.1448C135.519 11.1835 135.545 11.2285 135.562 11.2773C135.577 11.3261 135.584 11.3776 135.58 11.4288V12.6652C135.58 12.7901 135.549 12.8826 135.486 12.9381C135.423 12.9936 135.341 13.0235 135.258 13.0217H131.824V26.5607C131.832 26.6634 131.8 26.7652 131.735 26.8449C131.705 26.8762 131.669 26.9008 131.628 26.9171C131.589 26.9333 131.545 26.9408 131.502 26.9391H130.102C130.057 26.9416 130.012 26.9344 129.969 26.9182C129.927 26.9019 129.889 26.8769 129.857 26.8449C129.792 26.7652 129.76 26.6634 129.768 26.5607V13.0242H126.345C126.258 13.0273 126.173 12.9974 126.106 12.9406C126.044 12.8851 126.012 12.7945 126.012 12.6677V11.4288Z" fill="#0F1826"/>
<path d="M146.673 26.5168C146.718 26.6417 146.712 26.7446 146.657 26.8227C146.628 26.8615 146.591 26.8925 146.547 26.9129C146.504 26.9334 146.455 26.9425 146.408 26.9395H144.975C144.889 26.9385 144.805 26.9157 144.731 26.8733C144.686 26.8451 144.648 26.8076 144.619 26.7632C144.591 26.719 144.572 26.6689 144.564 26.6167L143.817 23.6869H139.015L138.281 26.6167C138.274 26.6689 138.256 26.719 138.226 26.7632C138.198 26.8076 138.16 26.8451 138.116 26.8733C138.04 26.9156 137.956 26.9384 137.871 26.9395H136.438C136.391 26.9432 136.343 26.9343 136.3 26.9138C136.257 26.8933 136.221 26.8619 136.193 26.8227C136.167 26.7767 136.151 26.7253 136.147 26.6723C136.143 26.6193 136.151 26.5661 136.17 26.5168L140.406 11.3874C140.429 11.2829 140.486 11.1889 140.567 11.1201C140.636 11.0684 140.719 11.0409 140.806 11.042H142.04C142.128 11.0415 142.213 11.0688 142.284 11.1201C142.369 11.1876 142.428 11.2818 142.451 11.3874L146.673 26.5168ZM139.494 21.8148H143.351L141.594 14.8411L141.427 13.6603L141.261 14.8411L139.494 21.8148Z" fill="#0F1826"/>
<path d="M149.165 11.5436C149.158 11.4213 149.196 11.3007 149.27 11.2033C149.31 11.1597 149.359 11.1257 149.414 11.1041C149.469 11.0824 149.528 11.0737 149.586 11.0784H151.009C151.291 11.0784 151.432 11.2345 151.432 11.5467V13.4512C151.436 13.6606 151.394 13.8684 151.307 14.0588C151.231 14.2196 151.119 14.3606 150.979 14.4709C150.839 14.5804 150.678 14.6619 150.507 14.7107C150.33 14.7625 150.146 14.7888 149.962 14.7888C149.732 14.7888 149.617 14.6958 149.617 14.5096V14.052C149.615 14.0145 149.623 13.977 149.641 13.9438C149.658 13.9107 149.685 13.8832 149.718 13.8646C149.789 13.8258 149.87 13.8065 149.952 13.8085C149.991 13.8129 150.032 13.8082 150.069 13.7948C150.106 13.7814 150.14 13.7595 150.168 13.731C150.213 13.6657 150.235 13.5872 150.23 13.508C150.236 13.4358 150.219 13.3633 150.18 13.302C150.156 13.2785 150.127 13.2608 150.095 13.25C150.063 13.2392 150.03 13.2356 149.996 13.2395H149.541C149.443 13.2415 149.348 13.2056 149.274 13.139C149.201 13.0723 149.164 12.9648 149.164 12.8156L149.165 11.5436Z" fill="#0F1826"/>
<path d="M155.323 11.4653C155.323 11.1906 155.445 11.0532 155.69 11.0532H157.013C157.257 11.0532 157.38 11.1906 157.38 11.4653V24.9793H162.57C162.661 24.975 162.75 25.0051 162.82 25.0636C162.882 25.1192 162.914 25.2097 162.914 25.3358V26.5616C162.918 26.6129 162.911 26.6645 162.895 26.7133C162.879 26.7621 162.854 26.8071 162.82 26.8457C162.786 26.8777 162.747 26.9026 162.705 26.919C162.662 26.9352 162.616 26.9426 162.57 26.9407H155.69C155.445 26.9407 155.323 26.8033 155.323 26.5286V11.4653Z" fill="#0F1826"/>
<path d="M166.205 11.4653C166.205 11.1906 166.33 11.0532 166.583 11.0532H167.905C168.143 11.0532 168.261 11.1906 168.261 11.4653V26.5279C168.261 26.8027 168.143 26.9401 167.905 26.9401H166.583C166.331 26.9401 166.205 26.8027 166.205 26.5279V11.4653Z" fill="#0F1826"/>
<path d="M175.02 15.9212L174.619 14.4732L174.753 15.9094L174.841 26.5404C174.856 26.8076 174.745 26.9413 174.509 26.9413H173.208C173.088 26.9413 173.007 26.9044 172.963 26.8301C172.915 26.7378 172.891 26.634 172.896 26.5298V11.4097C172.898 11.3127 172.932 11.2188 172.991 11.1418C173.021 11.108 173.057 11.0813 173.099 11.064C173.14 11.0467 173.185 11.0391 173.23 11.042H174.796C174.835 11.0381 174.874 11.0442 174.911 11.0597C174.946 11.0752 174.978 11.0997 175.001 11.1306C175.051 11.2073 175.09 11.2897 175.119 11.376L178.77 21.091L178.948 22.0158L179.126 21.0791L182.801 11.3748C182.828 11.2884 182.868 11.2059 182.917 11.1294C182.941 11.0983 182.973 11.0739 183.008 11.0583C183.045 11.0429 183.084 11.0368 183.123 11.0407H184.669C184.714 11.0379 184.758 11.0455 184.799 11.0628C184.841 11.0801 184.877 11.1067 184.907 11.1406C184.965 11.2174 184.999 11.3114 185.001 11.4085V26.5279C185.016 26.8026 184.917 26.9398 184.702 26.9394H183.398C183.178 26.9394 183.068 26.8057 183.068 26.5385L183.166 15.9231L183.291 14.5194L182.914 15.9231L179.799 24.1339C179.778 24.2311 179.732 24.3214 179.666 24.3961C179.608 24.4469 179.532 24.4728 179.455 24.4685H178.453C178.38 24.4717 178.308 24.4457 178.254 24.3961C178.188 24.3214 178.142 24.2311 178.12 24.1339L175.02 15.9212Z" fill="#0F1826"/>
<path d="M120.738 11.9759L119.165 12.2494C115.962 12.8071 112.981 13.658 110.269 14.6596V6.03016L109.432 6.40856C107.53 7.26665 105.726 8.16331 104.006 9.10836L103.948 0.0674085L103.038 0.652028C98.6093 3.49353 94.548 6.72238 90.9215 10.2767C87.4281 6.95909 83.4912 3.73741 79.1684 0.667271L78.2312 0.00195312V9.37289C76.3585 8.31574 74.4386 7.35273 72.4784 6.49194L71.642 6.12431L71.6814 14.1485C68.8126 13.1586 65.9242 12.5121 63.0616 12.2197L61.6531 12.0763L72.9283 26.2327L72.8783 15.87C74.8162 16.6296 76.6094 17.4966 78.2321 18.3905V27.3616L78.349 27.5203C81.6641 32.0036 90.3855 39.296 90.7555 39.6045L91.1324 39.9192L91.5119 39.6063C91.8819 39.3014 100.61 32.0842 103.927 27.4261L104.122 27.0908L104.069 18.7385C105.594 17.9333 107.27 17.137 109.082 16.4V26.2766L120.738 11.9759ZM110.269 15.9337C112.576 15.0603 115.086 14.2947 117.769 13.7324L110.269 22.9339V15.9337ZM64.3747 13.5845C66.9658 13.9593 69.415 14.6112 71.6858 15.4235L71.7215 22.8084L64.3747 13.5845ZM102.766 2.25077L102.777 9.79969C100.124 11.3294 97.6731 12.9882 95.3684 14.8192C94.8661 14.265 94.3509 13.7118 93.8201 13.1594C93.1562 12.4672 92.4706 11.7795 91.7695 11.0944C95.0779 7.85306 98.7338 4.91472 102.766 2.25077ZM82.7924 19.7875C81.6819 19.0353 80.5555 18.3341 79.4184 17.6848V11.4522C81.6221 12.7909 83.7537 14.265 85.7995 15.8665C84.7587 17.1317 83.7554 18.4389 82.7924 19.7875ZM86.7218 16.5999C87.8811 17.5406 89.0118 18.5224 90.1114 19.5427C89.049 20.6187 88.0133 21.7477 86.9967 22.9348C86.0556 22.1574 84.9738 21.3181 83.7653 20.461C84.7114 19.1348 85.6959 17.8472 86.7218 16.5999ZM94.4512 15.5625C93.2495 16.5578 92.0885 17.6015 90.9578 18.7035C89.8322 17.6571 88.6747 16.651 87.4877 15.6871C88.5908 14.3915 89.7397 13.1379 90.9344 11.9256C92.1724 13.1308 93.3455 14.3431 94.4512 15.5625ZM94.2722 23.7598C92.6807 25.0428 91.5811 26.0803 91.0122 26.6416C90.465 26.0659 89.4112 25.0051 87.9061 23.7041C88.9081 22.5349 89.9316 21.4221 90.9785 20.3623C92.1127 21.4535 93.2106 22.586 94.2722 23.7598ZM87.1359 24.6187C89.3152 26.5071 90.5359 27.8798 90.5541 27.9005L90.9863 28.391L91.4324 27.913C91.4505 27.8933 92.7256 26.5385 95.0667 24.6537C95.8119 25.5073 96.5372 26.3816 97.2426 27.2746L91.1713 33.041L85.006 27.3158C85.7084 26.3843 86.4171 25.4858 87.1359 24.6187ZM91.8249 19.5239C92.9323 18.4471 94.0708 17.4266 95.2465 16.4538C96.4533 17.8283 97.5746 19.2092 98.6059 20.5918C98.4944 20.6653 98.3863 20.738 98.2791 20.8097C97.1345 21.5791 96.1092 22.326 95.2093 23.02C94.1192 21.8122 92.9902 20.6466 91.8249 19.5239ZM96.1654 15.7113C98.2359 14.0714 100.427 12.5722 102.781 11.1815L102.792 18.0714C101.634 18.7044 100.568 19.3374 99.6026 19.9481C98.5497 18.5349 97.4034 17.1218 96.1654 15.7113ZM79.4184 2.31443C83.3493 5.1622 86.9172 8.10771 90.0846 11.1097C89.4657 11.7374 88.8588 12.3731 88.2658 13.0196C87.6883 13.6508 87.1212 14.2955 86.5645 14.9501C84.2812 13.1612 81.8935 11.5267 79.4184 10.0606V2.31443ZM74.5849 15.2711C74.0146 15.0272 73.4424 14.7959 72.8694 14.5788L72.8373 7.96066C74.6742 8.79991 76.4737 9.73062 78.2294 10.7466V17.0277C77.0236 16.3821 75.8069 15.7947 74.5849 15.2711ZM82.1086 20.7622C81.1714 22.1206 80.2734 23.5158 79.4192 24.946V19.0658C80.3877 19.636 81.2875 20.2081 82.1086 20.7622ZM91.135 38.3671C89.4441 36.9324 82.5272 30.9841 79.5352 27.1168C80.6474 25.1478 81.8292 23.2558 83.0815 21.4374C84.2535 22.2695 85.3077 23.0881 86.227 23.8494C85.3844 24.8671 84.5543 25.9261 83.7322 27.0307L83.4118 27.4611L91.1799 34.6756L98.8453 27.3956L98.5134 26.968C97.7042 25.9251 96.8665 24.9074 96.0038 23.9167C96.8691 23.2495 97.8512 22.5349 98.9404 21.8033C99.0606 21.7216 99.1851 21.6391 99.3096 21.5566C100.613 23.3804 101.76 25.2079 102.741 27.0298C99.7626 31.0244 92.8302 36.9423 91.135 38.3671ZM102.801 24.7227C102.048 23.4557 101.217 22.1852 100.306 20.9128C101.073 20.4296 101.904 19.9319 102.793 19.4325L102.801 24.7227ZM104.058 17.3979L104.013 10.4695C105.623 9.56481 107.307 8.70491 109.08 7.88176V15.1151C107.273 15.8306 105.594 16.6071 104.058 17.3979Z" fill="#BA8D5B"/>
</g>
</g>
<defs>
<clipPath id="clip0_1_7611">
<rect width="185" height="39.7664" fill="white" transform="translate(0 0.00195312)"/>
</clipPath>
</defs>
</svg>
