<svg width="16" height="16" viewBox="0 0 16 16" fill="none" xmlns="http://www.w3.org/2000/svg">
<path d="M7.99998 0.208344C3.69676 0.208344 0.208313 3.69679 0.208313 8.00001C0.208313 12.3032 3.69676 15.7917 7.99998 15.7917C12.0495 15.7917 15.377 12.7028 15.7558 8.75236C15.7734 8.5685 15.6789 8.39202 15.5162 8.30472C15.3534 8.21741 15.1541 8.23633 15.0107 8.35271C14.2227 8.99216 13.2192 9.37501 12.125 9.37501C9.59367 9.37501 7.54165 7.32298 7.54165 4.79168C7.54165 3.28825 8.26503 1.95389 9.38468 1.11737C9.53272 1.00677 9.59986 0.818077 9.55496 0.638822C9.51005 0.459566 9.36189 0.324813 9.17919 0.297062C8.79438 0.238614 8.40057 0.208344 7.99998 0.208344Z" fill="black"/>
</svg>
