<svg width="25" height="26" viewBox="0 0 25 26" fill="none" xmlns="http://www.w3.org/2000/svg">
<path fill-rule="evenodd" clip-rule="evenodd" d="M24.2 13.2801C24.2 20.156 18.8274 25.7301 12.2 25.7301C5.57253 25.7301 0.199951 20.156 0.199951 13.2801C0.199951 6.40413 5.57253 0.830078 12.2 0.830078C18.8274 0.830078 24.2 6.40413 24.2 13.2801ZM12.5746 9.8203C11.4103 10.3333 9.08329 11.3951 5.59363 13.0057C5.02697 13.2444 4.73012 13.4779 4.7031 13.7062C4.65743 14.0921 5.11364 14.2441 5.73487 14.451C5.81937 14.4792 5.90692 14.5083 5.99668 14.5392C6.60788 14.7497 7.43004 14.9959 7.85745 15.0057C8.24516 15.0146 8.67787 14.8452 9.15561 14.4977C12.4162 12.1663 14.0992 10.9879 14.2049 10.9625C14.2794 10.9445 14.3828 10.922 14.4527 10.9879C14.5227 11.0538 14.5159 11.1786 14.5084 11.2121C14.4633 11.4162 12.6725 13.1798 11.7458 14.0924C11.4569 14.3769 11.2519 14.5788 11.21 14.6249C11.1162 14.7281 11.0206 14.8258 10.9286 14.9196C10.3608 15.4995 9.93496 15.9343 10.9522 16.6444C11.441 16.9856 11.8322 17.2678 12.2224 17.5493C12.6486 17.8567 13.0737 18.1634 13.6236 18.5453C13.7638 18.6426 13.8976 18.7436 14.0279 18.8421C14.5239 19.2166 14.9695 19.5531 15.5199 19.4994C15.8398 19.4683 16.1702 19.1496 16.338 18.1994C16.7346 15.9537 17.5141 11.0879 17.6942 9.08277C17.71 8.9071 17.6901 8.68227 17.6742 8.58358C17.6583 8.48489 17.6249 8.34427 17.5038 8.24018C17.3604 8.1169 17.139 8.0909 17.04 8.09266C16.5897 8.10115 15.899 8.35559 12.5746 9.8203Z" fill="#BA8D5B"/>
</svg>
