<svg width="25" height="25" viewBox="0 0 25 25" fill="none" xmlns="http://www.w3.org/2000/svg">
<g clip-path="url(#clip0_1_7236)">
<path fill-rule="evenodd" clip-rule="evenodd" d="M12.2 0.0800781C5.57253 0.0800781 0.199951 5.45266 0.199951 12.0801C0.199951 18.7075 5.57253 24.0801 12.2 24.0801C18.8274 24.0801 24.2 18.7075 24.2 12.0801C24.2 5.45266 18.8274 0.0800781 12.2 0.0800781ZM17.2008 7.95474C17.7516 8.10588 18.1853 8.55119 18.3325 9.11669C18.6 10.1416 18.6 12.2801 18.6 12.2801C18.6 12.2801 18.6 14.4185 18.3325 15.4435C18.1853 16.009 17.7516 16.4543 17.2008 16.6055C16.2027 16.8801 12.2 16.8801 12.2 16.8801C12.2 16.8801 8.19726 16.8801 7.19908 16.6055C6.64831 16.4543 6.21457 16.009 6.06737 15.4435C5.79995 14.4185 5.79995 12.2801 5.79995 12.2801C5.79995 12.2801 5.79995 10.1416 6.06737 9.11669C6.21457 8.55119 6.64831 8.10588 7.19908 7.95474C8.19726 7.68008 12.2 7.68008 12.2 7.68008C12.2 7.68008 16.2027 7.68008 17.2008 7.95474Z" fill="#BA8D5B"/>
<path d="M11 14.4805V10.4805L14.2 12.4806L11 14.4805Z" fill="#BA8D5B"/>
</g>
<defs>
<clipPath id="clip0_1_7236">
<rect width="24" height="24" fill="white" transform="translate(0.199951 0.0800781)"/>
</clipPath>
</defs>
</svg>
